<svg xmlns="http://www.w3.org/2000/svg" width="51.37" height="34.247" viewBox="0 0 51.37 34.247">
  <g id="Group_18" data-name="Group 18" transform="translate(-344.315 -64.348)">
    <g id="Group_15" data-name="Group 15">
      <path id="Path_60" data-name="Path 60" d="M394.63,98.6H345.37a1.055,1.055,0,0,1-1.055-1.055v-25.8a1.055,1.055,0,0,1,1.055-1.056h8.542l1.217-5.5a1.057,1.057,0,0,1,1.031-.828h27.68a1.055,1.055,0,0,1,1.03.828l1.218,5.5h8.542a1.055,1.055,0,0,1,1.055,1.056v25.8A1.055,1.055,0,0,1,394.63,98.6Zm-48.2-2.111h47.148V72.793H385.24a1.057,1.057,0,0,1-1.031-.828l-1.217-5.506H357.008l-1.217,5.506a1.057,1.057,0,0,1-1.031.828h-8.334Z" fill="#18b2ff"/>
    </g>
    <g id="Group_16" data-name="Group 16">
      <path id="Path_61" data-name="Path 61" d="M370,93.748a11.377,11.377,0,1,1,11.376-11.377A11.39,11.39,0,0,1,370,93.748Zm0-20.643a9.266,9.266,0,1,0,9.265,9.266A9.276,9.276,0,0,0,370,73.105Z" fill="#18b2ff"/>
    </g>
    <circle id="Ellipse_1" data-name="Ellipse 1" cx="2.756" cy="2.756" r="2.756" transform="translate(364.242 77.381)" fill="#18b2ff"/>
    <g id="Group_17" data-name="Group 17">
      <path id="Path_62" data-name="Path 62" d="M390.29,77.5h-6.567a1.056,1.056,0,1,1,0-2.111h6.567a1.056,1.056,0,1,1,0,2.111Z" fill="#18b2ff"/>
    </g>
  </g>
</svg>
