<svg xmlns="http://www.w3.org/2000/svg" width="20.467" height="20.467" viewBox="0 0 20.467 20.467">
  <g id="Layer_20" data-name="Layer 20" transform="translate(-404.221 -375.429)">
    <g id="Group_10" data-name="Group 10">
      <path id="Path_51" data-name="Path 51" d="M414.454,395.9h0a10.233,10.233,0,0,1-10.233-10.234h0a10.232,10.232,0,0,1,10.233-10.233h0a10.233,10.233,0,0,1,10.234,10.233h0A10.234,10.234,0,0,1,414.454,395.9Z" fill="#29a9e1"/>
      <path id="Path_52" data-name="Path 52" d="M409,389.088a6.363,6.363,0,0,0,9.788-5.65,4.539,4.539,0,0,0,1.117-1.158,4.479,4.479,0,0,1-1.285.352,2.238,2.238,0,0,0,.983-1.238,4.482,4.482,0,0,1-1.42.544,2.239,2.239,0,0,0-3.813,2.04,6.349,6.349,0,0,1-4.611-2.338,2.241,2.241,0,0,0,.693,2.988,2.239,2.239,0,0,1-1.014-.28,2.24,2.24,0,0,0,1.794,2.222,2.236,2.236,0,0,1-1.01.038,2.239,2.239,0,0,0,2.09,1.554A4.5,4.5,0,0,1,409,389.088Z" fill="#fff"/>
    </g>
  </g>
</svg>
