<svg xmlns="http://www.w3.org/2000/svg" width="20.467" height="20.467" viewBox="0 0 20.467 20.467">
  <g id="Layer_19" data-name="Layer 19" transform="translate(-434.192 -375.429)">
    <g id="Group_12" data-name="Group 12">
      <path id="Path_53" data-name="Path 53" d="M444.425,395.9h0a10.233,10.233,0,0,1-10.233-10.234h0a10.232,10.232,0,0,1,10.233-10.233h0a10.233,10.233,0,0,1,10.234,10.233h0A10.234,10.234,0,0,1,444.425,395.9Z" fill="#df4b38"/>
      <g id="Group_11" data-name="Group 11">
        <path id="Path_54" data-name="Path 54" d="M445.7,385.4H441.57l.005,1.184h2.788a2.737,2.737,0,0,1-2.713,2.326,3.243,3.243,0,1,1,2.205-5.622l.915-.788a4.446,4.446,0,1,0-3.12,7.612,4.026,4.026,0,0,0,4.061-4.254Z" fill="#fff"/>
        <path id="Path_55" data-name="Path 55" d="M451.647,385.445H449.94v-1.707h-1.089v1.707h-1.707v1.089h1.707v1.707h1.089v-1.707h1.707Z" fill="#fff"/>
      </g>
    </g>
  </g>
</svg>
