<svg xmlns="http://www.w3.org/2000/svg" width="12.18" height="15.127" viewBox="0 0 12.18 15.127">
  <g id="Layer_27" data-name="Layer 27" transform="translate(-268.043 -226.073)">
    <g id="Group_3" data-name="Group 3">
      <path id="Path_10" data-name="Path 10" d="M278.9,231.073h-.922v-1.15a3.85,3.85,0,1,0-7.7,0v1.15h-.924a1.317,1.317,0,0,0-1.311,1.311v7.494a1.319,1.319,0,0,0,1.311,1.322H278.9a1.322,1.322,0,0,0,1.323-1.322v-7.494A1.32,1.32,0,0,0,278.9,231.073Zm-6.882-1.15a2.11,2.11,0,1,1,4.22,0v1.15h-4.22Zm2.822,7.809v1.914a.144.144,0,0,1-.151.139h-.916a.142.142,0,0,1-.14-.139v-1.914a1.682,1.682,0,1,1,1.207,0Z" fill="#0FBA8E"/>
    </g>
  </g>
</svg>
