<svg xmlns="http://www.w3.org/2000/svg" width="10.213" height="11.247" viewBox="0 0 10.213 11.247">
  <path id="Path_162" data-name="Path 162" d="M-70.6,660.835a3.73,3.73,0,0,0-.444-5.25,3.729,3.729,0,0,0-5.25.443,3.728,3.728,0,0,0,.027,4.832l-.792.939-.225-.19-2.443,2.894a.881.881,0,0,0,.1,1.243.881.881,0,0,0,1.243-.1l2.443-2.894-.224-.189.792-.939A3.728,3.728,0,0,0-70.6,660.835Zm-4.8-4.048a2.551,2.551,0,0,1,3.592-.3,2.551,2.551,0,0,1,.3,3.592,2.552,2.552,0,0,1-3.593.3A2.553,2.553,0,0,1-75.4,656.787Z" transform="translate(79.938 -654.707)" fill="#fff"/>
</svg>
