<svg xmlns="http://www.w3.org/2000/svg" width="20.467" height="20.467" viewBox="0 0 20.467 20.467">
  <g id="Layer_18" data-name="Layer 18" transform="translate(-463.824 -375.429)">
    <g id="Group_13" data-name="Group 13">
      <path id="Path_56" data-name="Path 56" d="M474.057,395.9h0a10.234,10.234,0,0,1-10.233-10.234h0a10.233,10.233,0,0,1,10.233-10.233h0a10.233,10.233,0,0,1,10.234,10.233h0A10.234,10.234,0,0,1,474.057,395.9Z" fill="#3e5c9a"/>
      <path id="Path_57" data-name="Path 57" d="M472.5,391.848h2.491V385.61h1.738l.185-2.089h-1.923v-1.19c0-.492.1-.687.575-.687h1.348v-2.167h-1.724c-1.854,0-2.69.816-2.69,2.379v1.665h-1.3v2.115h1.3Z" fill="#fff"/>
    </g>
  </g>
</svg>
