<svg xmlns="http://www.w3.org/2000/svg" width="27.513" height="27.513" viewBox="0 0 27.513 27.513">
  <g id="ACLs" transform="translate(0 0)">
    <path id="Path_24" data-name="Path 24" d="M13.566,273.1a2.947,2.947,0,1,0-2.948,2.948A2.953,2.953,0,0,0,13.566,273.1Zm-2.948.982a.982.982,0,1,1,.984-.982A.982.982,0,0,1,10.617,274.077Z" transform="translate(-5.705 -269.165)" fill="#747373"/>
    <path id="Path_25" data-name="Path 25" d="M7.728,278.816a.983.983,0,0,0,.984-.982,5.653,5.653,0,0,1,1.069-2.948h3.756a5.671,5.671,0,0,1,1.069,2.948.983.983,0,0,0,1.966,0c0-1.144-.92-4.913-2.948-4.913H9.694c-2.028,0-2.948,3.769-2.948,4.913a.983.983,0,0,0,.982.982Z" transform="translate(-6.746 -266.042)" fill="#747373"/>
    <path id="Path_26" data-name="Path 26" d="M13.566,278.642a2.947,2.947,0,1,0-2.948,2.948A2.952,2.952,0,0,0,13.566,278.642Zm-2.948.982a.982.982,0,1,1,.984-.982A.982.982,0,0,1,10.617,279.624Z" transform="translate(-5.705 -262.921)" fill="#747373"/>
    <path id="Path_27" data-name="Path 27" d="M15.589,284.363a.983.983,0,0,0,.984-.982c0-1.144-.92-4.912-2.948-4.912H9.694c-2.028,0-2.948,3.769-2.948,4.912a.983.983,0,0,0,1.966,0,5.653,5.653,0,0,1,1.069-2.948h3.756a5.671,5.671,0,0,1,1.069,2.948.982.982,0,0,0,.982.982Z" transform="translate(-6.746 -259.798)" fill="#747373"/>
    <path id="Path_28" data-name="Path 28" d="M29.809,275.869l-5.9-5.895a.978.978,0,0,0-.7-.289H11.426a.983.983,0,0,0,0,1.966H22.811l5.321,5.319v18.264H11.426a.982.982,0,1,0,0,1.964H29.114a.983.983,0,0,0,.982-.982V276.564a.976.976,0,0,0-.287-.7Z" transform="translate(-2.583 -269.685)" fill="#747373"/>
    <path id="Path_29" data-name="Path 29" d="M13.8,276.446a.978.978,0,0,0,.7-.287l2.948-2.948a.982.982,0,1,0-1.39-1.388L13.8,274.076l-.287-.289a.983.983,0,0,0-1.39,1.39l.984.982a.977.977,0,0,0,.693.287Z" transform="translate(-1.022 -267.603)" fill="#747373"/>
    <path id="Path_30" data-name="Path 30" d="M12.118,283.094a.986.986,0,0,0,1.39,0l.78-.78.778.78a.983.983,0,0,0,1.39-1.39l-.78-.778.78-.78a.983.983,0,0,0-1.39-1.39l-.778.78-.78-.78a.983.983,0,0,0-1.39,1.39l.78.78-.78.778a.985.985,0,0,0,0,1.39Z" transform="translate(-1.022 -259.798)" fill="#747373"/>
    <path id="Path_31" data-name="Path 31" d="M14.779,280.665a2.944,2.944,0,0,0,2.778-2,.874.874,0,0,0,.168.034H24.6a.983.983,0,0,0,.984-.982v-1.966a.983.983,0,0,0-1.966,0v.982H22.64v-.982a.983.983,0,0,0-1.966,0v.982H17.726a.874.874,0,0,0-.168.036,2.942,2.942,0,1,0-2.778,3.894Zm0-3.93a.983.983,0,1,1-.984.984A.984.984,0,0,1,14.779,276.734Z" transform="translate(-1.022 -263.961)" fill="#747373"/>
  </g>
</svg>
