<svg xmlns="http://www.w3.org/2000/svg" width="25.421" height="28.463" viewBox="0 0 25.421 28.463">
  <path id="Alart_and_notifications" data-name="Alart and notifications" d="M14.314,320.887,12.491,318.8a15.969,15.969,0,0,0-5.253,11.458H9.789A12.838,12.838,0,0,1,14.314,320.887Zm15.794,9.37h2.551a16.077,16.077,0,0,0-5.253-11.46l-1.811,2.09a12.921,12.921,0,0,1,4.515,9.37Zm-2.51.731c0-4.483-2.092-8.233-5.737-9.226v-.993a2.062,2.062,0,0,0-1.911-2.189,2.062,2.062,0,0,0-1.913,2.189v.993c-3.658.993-5.737,4.73-5.737,9.226v7.3L9.751,341.2v1.46h20.4V341.2L27.6,338.286ZM19.95,347.044a2.036,2.036,0,0,0,.508-.057,2.7,2.7,0,0,0,1.837-1.724,3.3,3.3,0,0,0,.191-1.137h-5.1A2.772,2.772,0,0,0,19.95,347.044Z" transform="translate(-7.238 -318.581)" fill="#747373"/>
</svg>
