<svg xmlns="http://www.w3.org/2000/svg" width="25.264" height="25.302" viewBox="0 0 25.264 25.302">
  <g id="Ducumentation_and_Tutorials" data-name="Ducumentation and Tutorials" transform="translate(0 0)">
    <path id="Path_35" data-name="Path 35" d="M22.945,345.269h-6.53l-7.468,2.489a.43.43,0,0,0-.285.368v17.956a1.226,1.226,0,0,0,1.224,1.224H10.7a.408.408,0,1,0,0-.816H9.886a.408.408,0,0,1-.408-.408V348.615a1.191,1.191,0,0,1,.816,1.144.377.377,0,0,0,.612.325l1.141-.816a.408.408,0,1,0-.489-.653l-.612.449a1.859,1.859,0,0,0-.653-.9l3.671-1.224-1.061.776a.4.4,0,0,0-.081.572.37.37,0,0,0,.572.081l3.182-2.285h6.366a.409.409,0,0,1,.408.408v13.874a.408.408,0,1,0,.816,0V346.493a1.256,1.256,0,0,0-1.224-1.224Z" transform="translate(-5.397 -342.004)" fill="#747373"/>
    <path id="Path_36" data-name="Path 36" d="M15.981,352.853a.385.385,0,0,0-.408.408v1.02a.408.408,0,1,0,.816,0v-1.02A.408.408,0,0,0,15.981,352.853Z" transform="translate(2.383 -333.467)" fill="#747373"/>
    <path id="Path_37" data-name="Path 37" d="M22.033,354.1a.386.386,0,0,0-.408.408v1.633a.408.408,0,0,1-.408.408H10.605a.408.408,0,1,0,0,.816H21.217a1.226,1.226,0,0,0,1.224-1.224v-1.633A.409.409,0,0,0,22.033,354.1Z" transform="translate(-3.669 -332.063)" fill="#747373"/>
    <path id="Path_38" data-name="Path 38" d="M9.159,345.3H22.136a.372.372,0,0,1,.327.164.405.405,0,0,0,.612-.531,1.188,1.188,0,0,0-.94-.408H9.159a1.212,1.212,0,0,0-1.265,1.224v19.508a1.27,1.27,0,0,0,.366.9.422.422,0,0,0,.572,0,.394.394,0,0,0,0-.572.469.469,0,0,1-.121-.327V345.746A.453.453,0,0,1,9.159,345.3Z" transform="translate(-6.261 -342.848)" fill="#747373"/>
    <path id="Path_39" data-name="Path 39" d="M7.942,362.776v-17.1a.408.408,0,1,0-.816,0v17.1a1.472,1.472,0,0,0,.366.9.491.491,0,0,0,.572,0,.394.394,0,0,0,0-.572A.469.469,0,0,1,7.942,362.776Z" transform="translate(-7.126 -342.004)" fill="#747373"/>
    <path id="Path_40" data-name="Path 40" d="M21.653,344.63a.405.405,0,0,0,.531-.612,1.11,1.11,0,0,0-.816-.285H8.391A1.271,1.271,0,0,0,7.126,345v.776a.408.408,0,1,0,.816,0V345a.453.453,0,0,1,.449-.448H21.368A.472.472,0,0,1,21.653,344.63Z" transform="translate(-7.126 -343.733)" fill="#747373"/>
    <path id="Path_41" data-name="Path 41" d="M20.871,348.926h-.449a1.046,1.046,0,0,0-.816-.816v-1.184a1.225,1.225,0,1,0-2.449-.04v1.224a.963.963,0,0,0-.816.937.385.385,0,0,0,.408.408.4.4,0,0,0,.368-.57h2.489v6.528H17.157v-4.855a.408.408,0,0,0-.816,0v10.529a9.946,9.946,0,0,0,1.715,5.633.371.371,0,0,0,.325.162.509.509,0,0,0,.327-.162,10.135,10.135,0,0,0,1.55-3.837.416.416,0,0,0-.816-.164,5.63,5.63,0,0,1-.2.9H17.485a8.853,8.853,0,0,1-.368-2.532v-3.182h2.449v3.182a.408.408,0,1,0,.816,0V349.743h.489a.323.323,0,0,1,.327.325v4.98a.408.408,0,0,0,.816,0v-4.938A1.126,1.126,0,0,0,20.871,348.926Zm-2.081-.816h-.816v-1.224a.408.408,0,1,1,.816,0Zm.2,16.323a7.25,7.25,0,0,1-.612,1.267,7.25,7.25,0,0,1-.612-1.267Zm.612-7.344H17.157v-.816h2.449Z" transform="translate(3.247 -341.58)" fill="#747373"/>
    <path id="Path_42" data-name="Path 42" d="M9.069,345.269a.386.386,0,0,0-.408.408v.816a.408.408,0,0,0,.816,0v-.408h.408a.408.408,0,0,0,0-.816Z" transform="translate(-5.398 -342.004)" fill="#747373"/>
    <path id="Path_43" data-name="Path 43" d="M10.221,345.269a.408.408,0,0,0,0,.816h.816a.408.408,0,0,0,0-.816Z" transform="translate(-4.101 -342.004)" fill="#747373"/>
    <path id="Path_44" data-name="Path 44" d="M18.671,347.237a.408.408,0,0,0,0-.816h-6.53a.408.408,0,0,0,0,.816Z" transform="translate(-1.94 -340.707)" fill="#747373"/>
    <path id="Path_45" data-name="Path 45" d="M10.2,347.981a.386.386,0,0,0,.408.408h9.8a.408.408,0,0,0,0-.816h-9.8A.386.386,0,0,0,10.2,347.981Z" transform="translate(-3.669 -339.41)" fill="#747373"/>
    <path id="Path_46" data-name="Path 46" d="M9.429,349.133a.386.386,0,0,0,.408.408H21.265a.408.408,0,0,0,0-.816H9.837A.385.385,0,0,0,9.429,349.133Z" transform="translate(-4.534 -338.114)" fill="#747373"/>
    <path id="Path_47" data-name="Path 47" d="M9.837,350.693H21.265a.408.408,0,1,0,0-.816H9.837a.408.408,0,1,0,0,.816Z" transform="translate(-4.534 -336.817)" fill="#747373"/>
    <path id="Path_48" data-name="Path 48" d="M9.837,351.845H21.265a.408.408,0,0,0,0-.816H9.837a.408.408,0,0,0,0,.816Z" transform="translate(-4.534 -335.52)" fill="#747373"/>
    <path id="Path_49" data-name="Path 49" d="M9.837,353H21.265a.408.408,0,0,0,0-.816H9.837a.408.408,0,0,0,0,.816Z" transform="translate(-4.534 -334.224)" fill="#747373"/>
    <path id="Path_50" data-name="Path 50" d="M9.837,354.148H21.265a.408.408,0,0,0,0-.816H9.837a.408.408,0,0,0,0,.816Z" transform="translate(-4.534 -332.927)" fill="#747373"/>
    <path id="Path_51" data-name="Path 51" d="M9.837,355.3H21.265a.408.408,0,0,0,0-.816H9.837a.408.408,0,0,0,0,.816Z" transform="translate(-4.534 -331.631)" fill="#747373"/>
  </g>
</svg>
