<svg xmlns="http://www.w3.org/2000/svg" width="26.71" height="22.15" viewBox="0 0 26.71 22.15">
  <path id="Dump_Data" data-name="Dump Data" d="M1.808,0H24.9A1.927,1.927,0,0,1,26.71,2.019V20.131A1.93,1.93,0,0,1,24.9,22.15H1.808A1.93,1.93,0,0,1,0,20.131V2.019A1.927,1.927,0,0,1,1.808,0ZM19.3,13.213a.514.514,0,0,1,.616-.428.578.578,0,0,1,.384.688L19.189,18.8a.514.514,0,0,1-.616.428.578.578,0,0,1-.384-.688ZM3.517,17.771a.65.65,0,0,1,0-1.291H8.951a.65.65,0,0,1,0,1.291Zm0-4.031a.65.65,0,0,1,0-1.291h9.442a.65.65,0,0,1,0,1.291Zm0-4.031a.65.65,0,0,1,0-1.291H18.476a.65.65,0,0,1,0,1.291Zm14.042,7.767a.622.622,0,0,1,.028.787.476.476,0,0,1-.7.075l-1.956-1.905a.6.6,0,0,1-.174-.392.613.613,0,0,1,.126-.414.387.387,0,0,1,.05-.056l1.956-1.9a.475.475,0,0,1,.722.053.618.618,0,0,1-.048.806L16.055,16Zm4.178.864a.477.477,0,0,1-.724-.056.62.62,0,0,1,.05-.808L22.569,16l-1.506-1.473a.618.618,0,0,1-.048-.806.475.475,0,0,1,.722-.053l1.956,1.9a.387.387,0,0,1,.05.056.614.614,0,0,1,.126.414.6.6,0,0,1-.174.392l-1.956,1.905ZM25.649,5.653H1.15V20.327a.58.58,0,0,0,.154.4.471.471,0,0,0,.354.163H25.134a.471.471,0,0,0,.354-.163.583.583,0,0,0,.146-.4V5.653ZM23.18,2.269a.949.949,0,0,1,.9,1,.9.9,0,1,1-1.787,0,.95.95,0,0,1,.891-1Zm-6.051,0a.95.95,0,0,1,.893,1,.9.9,0,1,1-1.787,0,.95.95,0,0,1,.893-1Zm3.026,0a.95.95,0,0,1,.893,1,.9.9,0,1,1-1.787,0A.95.95,0,0,1,20.154,2.269Z" fill="#747373" fill-rule="evenodd"/>
</svg>
