<svg xmlns="http://www.w3.org/2000/svg" width="16.28" height="21.707" viewBox="0 0 16.28 21.707">
  <path id="icon_register" data-name="icon register" d="M14.245,2.713H10.853a2.713,2.713,0,1,0-5.427,0H2.035A2.036,2.036,0,0,0,0,4.748V19.672a2.036,2.036,0,0,0,2.035,2.035h12.21a2.036,2.036,0,0,0,2.035-2.035V4.748A2.036,2.036,0,0,0,14.245,2.713ZM4.07,17.976a1.017,1.017,0,1,1,1.017-1.017A1.015,1.015,0,0,1,4.07,17.976Zm0-4.07a1.017,1.017,0,1,1,1.017-1.017A1.015,1.015,0,0,1,4.07,13.906Zm0-4.07A1.017,1.017,0,1,1,5.088,8.818,1.015,1.015,0,0,1,4.07,9.836ZM8.14,1.7A1.018,1.018,0,1,1,7.122,2.713,1.015,1.015,0,0,1,8.14,1.7Zm5.427,15.6a.34.34,0,0,1-.339.339H7.122a.34.34,0,0,1-.339-.339v-.678a.34.34,0,0,1,.339-.339h6.105a.34.34,0,0,1,.339.339Zm0-4.07a.34.34,0,0,1-.339.339H7.122a.34.34,0,0,1-.339-.339v-.678a.34.34,0,0,1,.339-.339h6.105a.34.34,0,0,1,.339.339Zm0-4.07a.34.34,0,0,1-.339.339H7.122a.34.34,0,0,1-.339-.339V8.479a.34.34,0,0,1,.339-.339h6.105a.34.34,0,0,1,.339.339Z" fill="#747373"/>
</svg>
