<svg xmlns="http://www.w3.org/2000/svg" width="25.144" height="25.06" viewBox="0 0 25.144 25.06">
  <g id="Relatinal_graph" data-name="Relatinal graph" transform="translate(0.035 0.04)">
    <g id="Group_17" data-name="Group 17" transform="translate(0 0)">
      <path id="Path_74" data-name="Path 74" d="M845.977-499.578a2.314,2.314,0,0,0-1.472,1.217,1.506,1.506,0,0,0-.144.806,1.278,1.278,0,0,0,.189.844,2.49,2.49,0,0,0,1.011.995,2.03,2.03,0,0,0,1.511.078,2.151,2.151,0,0,0,1.4-2.144,2.338,2.338,0,0,0-1.272-1.667A2.164,2.164,0,0,0,845.977-499.578Zm.817.889a1.311,1.311,0,0,1,.678.544,1.326,1.326,0,0,1-.1,1.289,1.289,1.289,0,0,1-1.856.094,1.252,1.252,0,0,1,.033-1.65A1.239,1.239,0,0,1,846.793-498.689Z" transform="translate(-823.409 499.617)" fill="#747373" stroke="#747373" stroke-width="0.05"/>
      <path id="Path_75" data-name="Path 75" d="M11.489-454.962a2.194,2.194,0,0,0-1.478,2.128,2.136,2.136,0,0,0,2.567,1.822A2.274,2.274,0,0,0,14-452.246a2.089,2.089,0,0,0-.022-1.533,2.335,2.335,0,0,0-1.028-1.056A2.126,2.126,0,0,0,11.489-454.962Zm1.139.911a1.129,1.129,0,0,1,.622,1.222,1.066,1.066,0,0,1-1.067.994,1.011,1.011,0,0,1-.667-.122,1.02,1.02,0,0,1-.606-1.028,1.1,1.1,0,0,1,.694-1.111A1.792,1.792,0,0,1,12.628-454.051Z" transform="translate(-10.001 456.301)" fill="#747373" stroke="#747373" stroke-width="0.05"/>
      <path id="Path_76" data-name="Path 76" d="M566.052-356.672c-1.728,1.361-3.156,2.505-3.178,2.539a.641.641,0,0,0-.044.244.39.39,0,0,0,.422.405c.172,0,.528-.261,3.333-2.478,1.722-1.361,3.161-2.522,3.189-2.578a.392.392,0,0,0-.061-.467.332.332,0,0,0-.317-.144C569.207-359.15,568.9-358.922,566.052-356.672Z" transform="translate(-549.194 363.128)" fill="#747373" stroke="#747373" stroke-width="0.05"/>
      <path id="Path_77" data-name="Path 77" d="M178.53-300.233a.425.425,0,0,0-.25.411c0,.155.167.339,1.633,1.761a19.065,19.065,0,0,0,1.772,1.622.454.454,0,0,0,.539-.445c0-.144-.167-.333-1.317-1.461-1.544-1.511-2.039-1.956-2.172-1.956A.557.557,0,0,0,178.53-300.233Z" transform="translate(-174.05 305.309)" fill="#747373" stroke="#747373" stroke-width="0.05"/>
      <path id="Path_78" data-name="Path 78" d="M342.563-157.468a2.813,2.813,0,0,0-2.416,3.094,3.062,3.062,0,0,0,.717,1.444,2.739,2.739,0,0,0,4.4-.439,2.662,2.662,0,0,0,0-2.766A2.826,2.826,0,0,0,342.563-157.468Zm1.05.972a1.79,1.79,0,0,1,1.061,1.122,2.4,2.4,0,0,1-.078,1.467,1.935,1.935,0,0,1-3.4.011,1.547,1.547,0,0,1-.133-.855,1.547,1.547,0,0,1,.133-.855A1.956,1.956,0,0,1,343.613-156.5Z" transform="translate(-331.895 166.005)" fill="#747373" stroke="#747373" stroke-width="0.05"/>
      <path id="Path_79" data-name="Path 79" d="M566.979,31.605a.439.439,0,0,0-.239.439c0,.144.306.456,2.6,2.655,1.428,1.367,2.872,2.755,3.217,3.083.694.667.839.728,1.1.461.233-.228.189-.433-.178-.806-.428-.428-5.644-5.411-5.95-5.683C567.29,31.544,567.2,31.516,566.979,31.605Z" transform="translate(-553.013 -18.449)" fill="#747373" stroke="#747373" stroke-width="0.05"/>
      <path id="Path_80" data-name="Path 80" d="M290.122,81.393a.611.611,0,0,0-.2.144c-.095.111-1.772,4.939-1.772,5.094a.569.569,0,0,0,.361.378.461.461,0,0,0,.461-.183c.111-.211,1.733-4.939,1.733-5.05a.587.587,0,0,0-.361-.4A.379.379,0,0,0,290.122,81.393Z" transform="translate(-281.11 -66.915)" fill="#747373" stroke="#747373" stroke-width="0.05"/>
      <path id="Path_81" data-name="Path 81" d="M827.3,294.795a2.123,2.123,0,0,0-1.433,2.544,2.2,2.2,0,0,0,2.172,1.472,2.119,2.119,0,0,0,1.861-1.778,2.023,2.023,0,0,0-1.311-2.155A2.189,2.189,0,0,0,827.3,294.795Zm1.134.928a1.263,1.263,0,0,1,.394,1.789,1.354,1.354,0,0,1-1.544.3,1.209,1.209,0,0,1-.217-1.939A1.379,1.379,0,0,1,828.434,295.723Z" transform="translate(-805.361 -274.917)" fill="#747373" stroke="#747373" stroke-width="0.05"/>
      <path id="Path_82" data-name="Path 82" d="M192.463,335.531a1.952,1.952,0,0,0-1.261,1.139,1.515,1.515,0,0,0-.172.861,1.42,1.42,0,0,0,.155.811,2.292,2.292,0,0,0,1.028.983,1.608,1.608,0,0,0,.9.15,1.581,1.581,0,0,0,.861-.133,2.142,2.142,0,0,0,.933-.994,1.577,1.577,0,0,0,.178-.928,1.344,1.344,0,0,0-.15-.833A2.2,2.2,0,0,0,192.463,335.531Zm1.028.839a1.258,1.258,0,0,1,.689,1.589,1.3,1.3,0,0,1-1.583.633,1.321,1.321,0,0,1-.633-1.628,1.5,1.5,0,0,1,1.167-.678A.989.989,0,0,1,193.491,336.37Z" transform="translate(-186.483 -314.481)" fill="#747373" stroke="#747373" stroke-width="0.05"/>
    </g>
  </g>
</svg>
