<svg xmlns="http://www.w3.org/2000/svg" width="25.664" height="25.666" viewBox="0 0 25.664 25.666">
  <g id="Repositories" transform="translate(0 0)">
    <path id="Path_8" data-name="Path 8" d="M14.024,264.683c3.018,0,6.056-.852,6.77-1.9a.429.429,0,0,0,.074-.242V250.351c0-1.8-3.527-2.778-6.845-2.778s-6.843.974-6.843,2.778v12.191a.429.429,0,0,0,.074.242c.75,1.1,3.6,1.9,6.77,1.9Zm0-16.255c3.711,0,5.99,1.122,5.99,1.926s-2.279,1.924-5.99,1.924-5.988-1.12-5.988-1.924S10.314,248.428,14.024,248.428Zm-5.988,3.325.04.028.079.051c.083.057.172.111.264.164l.087.049c.117.064.24.125.372.183l.066.03c.115.047.232.1.353.14l.119.042c.142.051.289.1.44.145l.009,0c.155.047.315.089.48.13.043.011.087.021.132.03.138.034.278.064.421.091l.094.019c.172.034.342.064.519.089l.13.019q.214.032.434.057l.132.015c.181.019.363.036.546.049l.1.006q.233.016.466.026l.151.006c.185.006.372.011.557.011s.37,0,.555-.011l.151-.006c.155-.006.312-.015.468-.026l.1-.006c.185-.013.366-.03.546-.049l.132-.015c.147-.017.291-.036.436-.057l.128-.019c.174-.026.349-.055.519-.089l.1-.019c.142-.028.281-.057.419-.091l.134-.03c.164-.04.325-.083.48-.13l.006,0c.153-.045.3-.094.442-.145l.117-.042c.121-.045.238-.094.353-.14l.068-.03c.13-.057.253-.117.372-.183l.085-.049c.094-.053.181-.108.266-.164l.077-.051.04-.028V254.2c0,.648-1.484,1.5-4.007,1.809-.07.008-.142.015-.215.021-.1.011-.2.021-.3.03s-.2.017-.308.023l-.289.017-.274.013c-.2.006-.4.011-.6.011s-.4,0-.6-.011l-.274-.013c-.091,0-.193-.011-.289-.017s-.206-.015-.308-.023-.2-.019-.3-.03c-.072-.006-.142-.013-.215-.021-2.515-.306-4-1.161-4-1.809Zm0,4a11.835,11.835,0,0,0,5.1,1.2h.038c.117,0,.236.011.355.013.164,0,.327.008.491.008s.327,0,.493-.008c.119,0,.236-.009.355-.013h.036a11.827,11.827,0,0,0,5.1-1.2v2.3c0,.648-1.484,1.5-4.007,1.809-.07.009-.142.015-.215.021-.1.011-.2.021-.3.03s-.2.017-.308.023l-.289.017-.274.013c-.2.006-.4.011-.6.011s-.4,0-.6-.011l-.274-.013c-.091,0-.193-.011-.289-.017s-.206-.015-.308-.023-.2-.019-.3-.03c-.072-.006-.142-.013-.215-.021-2.521-.306-4.007-1.161-4.007-1.809Zm0,3.85a11.833,11.833,0,0,0,5.1,1.2h.038c.117,0,.236.011.355.013.164,0,.327.009.491.009s.327,0,.493-.009c.119,0,.236-.009.355-.013h.036a11.825,11.825,0,0,0,5.1-1.2v2.787c-.6.627-3.023,1.433-5.988,1.433-2.876,0-5.342-.723-5.988-1.431Z" transform="translate(-7.181 -243.294)" fill="#747373"/>
    <path id="Path_9" data-name="Path 9" d="M24.391,247.031a.431.431,0,0,0-.355-.187H21.778l-.332-.991a.43.43,0,0,0-.406-.293H15.053a.425.425,0,0,0-.323.151.417.417,0,0,0-.1.342l.855,5.561.006.021h0a.333.333,0,0,0,.032.091l.017.036.013.026a.342.342,0,0,0,.043.051l.019.021a.356.356,0,0,0,.1.07l.028.011h0a.493.493,0,0,0,.1.028l.019,0v0l.051,0h6.415a.429.429,0,0,0,.4-.27l1.711-4.277a.431.431,0,0,0-.043-.4Zm-8.839-.614h5.182l.142.427H17.62a.43.43,0,0,0-.4.268l-1.129,2.825Zm6.483,4.7H16.541l1.369-3.42H23.4Z" transform="translate(1.2 -245.56)" fill="#747373"/>
    <path id="Path_10" data-name="Path 10" d="M24.036,251.271H21.779l-.332-.991a.428.428,0,0,0-.406-.293H15.053a.432.432,0,0,0-.423.493l.857,5.561.006.021h0a.46.46,0,0,0,.03.091l.019.036.013.026a.34.34,0,0,0,.043.051l.019.021a.468.468,0,0,0,.1.07l.028.011h0a.452.452,0,0,0,.1.028l.019,0h0l.051,0h6.415a.429.429,0,0,0,.4-.27l1.711-4.277a.427.427,0,0,0-.4-.587Zm-8.484-.427h5.18l.142.427H17.621a.426.426,0,0,0-.4.268l-1.129,2.823Zm6.483,4.7H16.541l1.369-3.422h5.495Z" transform="translate(1.2 -240.577)" fill="#747373"/>
    <path id="Path_11" data-name="Path 11" d="M22.722,260.763l1.711-4.277a.427.427,0,0,0-.4-.587H21.778l-.332-.991a.428.428,0,0,0-.406-.293H15.053a.425.425,0,0,0-.323.151.417.417,0,0,0-.1.342l.855,5.561.006.021h0a.455.455,0,0,0,.03.091l.019.036.013.026a.337.337,0,0,0,.043.051l.019.021a.47.47,0,0,0,.1.07l.028.011h0a.487.487,0,0,0,.1.028l.019,0h0l.051,0h6.415a.429.429,0,0,0,.4-.27Zm-7.17-5.291h5.18l.142.427H17.62a.426.426,0,0,0-.4.268l-1.129,2.825Zm.988,4.7,1.369-3.42H23.4l-1.369,3.42Z" transform="translate(1.2 -235.367)" fill="#747373"/>
    <path id="Path_12" data-name="Path 12" d="M10.2,246.768h.857v.854H10.2Z" transform="translate(-3.784 -244.2)" fill="#747373"/>
    <path id="Path_13" data-name="Path 13" d="M10.2,245.963h.857v.855H10.2Z" transform="translate(-3.784 -245.106)" fill="#747373"/>
    <path id="Path_14" data-name="Path 14" d="M11,245.963h.857v.855H11Z" transform="translate(-2.877 -245.106)" fill="#747373"/>
    <path id="Path_15" data-name="Path 15" d="M11.809,245.963h.855v.855h-.855Z" transform="translate(-1.971 -245.106)" fill="#747373"/>
    <path id="Path_16" data-name="Path 16" d="M12.614,245.963h.855v.855h-.855Z" transform="translate(-1.065 -245.106)" fill="#747373"/>
    <path id="Path_17" data-name="Path 17" d="M13.419,245.963h.855v.855h-.855Z" transform="translate(-0.159 -245.106)" fill="#747373"/>
    <path id="Path_18" data-name="Path 18" d="M10.2,256.024h.857v.855H10.2Z" transform="translate(-3.784 -233.781)" fill="#747373"/>
    <path id="Path_19" data-name="Path 19" d="M10.2,256.829h.857v.854H10.2Z" transform="translate(-3.784 -232.875)" fill="#747373"/>
    <path id="Path_20" data-name="Path 20" d="M11,256.829h.857v.854H11Z" transform="translate(-2.877 -232.875)" fill="#747373"/>
    <path id="Path_21" data-name="Path 21" d="M11.809,256.829h.855v.854h-.855Z" transform="translate(-1.971 -232.875)" fill="#747373"/>
    <path id="Path_22" data-name="Path 22" d="M12.614,256.829h.855v.854h-.855Z" transform="translate(-1.065 -232.875)" fill="#747373"/>
    <path id="Path_23" data-name="Path 23" d="M13.419,256.829h.855v.854h-.855Z" transform="translate(-0.159 -232.875)" fill="#747373"/>
  </g>
</svg>
