<svg xmlns="http://www.w3.org/2000/svg" width="26.794" height="26.794" viewBox="0 0 26.794 26.794">
  <g id="Resources" transform="translate(0 0)">
    <path id="Path_3" data-name="Path 3" d="M33.723,235.527v-2.761l-2.009-.548a11.7,11.7,0,0,0-.565-2.13l1.405-1.445h0a13.464,13.464,0,0,0-1.373-2.389l-1.947.5h0a11.685,11.685,0,0,0-1.55-1.56l.5-1.956h0a13.318,13.318,0,0,0-2.377-1.382l-1.437,1.411a11.436,11.436,0,0,0-2.119-.57l-.546-1.949H18.952l-.544,1.949a11.436,11.436,0,0,0-2.119.57l-1.437-1.411a13.194,13.194,0,0,0-2.377,1.382l.5,1.956a11.668,11.668,0,0,0-1.55,1.558l-1.947-.5A13.4,13.4,0,0,0,8.1,228.642l1.405,1.445a11.36,11.36,0,0,0-.565,2.13l-2.011.546v2.763l2.011.548a11.361,11.361,0,0,0,.565,2.13L8.1,239.651a13.4,13.4,0,0,0,1.375,2.389l1.945-.5h0a11.7,11.7,0,0,0,1.552,1.56l-.5,1.956a13.264,13.264,0,0,0,2.377,1.382l1.439-1.411a11.429,11.429,0,0,0,2.119.57l.544,1.949H21.7l.546-1.949a11.429,11.429,0,0,0,2.119-.57l1.437,1.411a13.191,13.191,0,0,0,2.377-1.382l-.5-1.956a11.922,11.922,0,0,0,1.55-1.558l1.947.5a13.391,13.391,0,0,0,1.373-2.389l-1.4-1.445a11.651,11.651,0,0,0,.565-2.13Zm-3.705-1.871h-9.2v-9.319a9.725,9.725,0,0,1,9.2,9.319Zm-10.18-9.319v9.321h-9.2a9.725,9.725,0,0,1,9.2-9.321Zm-9.2,10.3h9.2v9.181a9.731,9.731,0,0,1-9.2-9.181Zm10.174,9.181v-9.181h9.2a9.726,9.726,0,0,1-9.2,9.179Z" transform="translate(-6.929 -220.749)" fill="#747373"/>
    <path id="Path_4" data-name="Path 4" d="M14.485,228.376a.916.916,0,0,0-1.307,0l-.655.659-.655-.659a.916.916,0,0,0-1.307,0,.942.942,0,0,0,0,1.32l1.962,1.979,1.962-1.979a.942.942,0,0,0,0-1.32Z" transform="translate(-3.144 -212.472)" fill="#747373"/>
    <path id="Path_5" data-name="Path 5" d="M17.437,225h.208v-.895H14.072V225h.208l1.042,1.562L14.28,228.13h-.208v.893h3.573v-.893h-.208L16.4,226.567Zm-2.083,0h1.01l-.506.757Zm1.01,3.125h-1.01l.5-.757Z" transform="translate(1.112 -216.966)" fill="#747373"/>
    <path id="Path_6" data-name="Path 6" d="M16.543,230.15H15.2a.446.446,0,0,1,0-.893h2.234v-.893H16.1v-.893H15.2v.893a1.339,1.339,0,1,0,0,2.678h1.341a.447.447,0,0,1,0,.895H14.308v.893H15.2v.893H16.1v-.893h.446a1.34,1.34,0,0,0,0-2.681Z" transform="translate(0.875 -213.181)" fill="#747373"/>
    <path id="Path_7" data-name="Path 7" d="M13.385,225.725h-.03a1.116,1.116,0,1,0-1.718,0h-.03a.9.9,0,0,0-.9.9v2.192h3.571v-2.192a.9.9,0,0,0-.9-.9Z" transform="translate(-2.672 -217.205)" fill="#747373"/>
  </g>
</svg>
