<svg xmlns="http://www.w3.org/2000/svg" width="27.804" height="25.768" viewBox="0 0 27.804 25.768">
  <g id="SDK" transform="translate(-2.47 -3.792)">
    <path id="Path_32" data-name="Path 32" d="M33.4,300.65l-11.411-5.582a3.463,3.463,0,0,0-2.819,0L7.76,300.65a1.716,1.716,0,0,0,0,3.189l11.409,5.582a3.463,3.463,0,0,0,2.819,0L33.4,303.838a1.714,1.714,0,0,0,0-3.189Zm-.37,2.432-11.411,5.582a2.636,2.636,0,0,1-2.079,0L8.13,303.082a.957.957,0,0,1-.61-.835.972.972,0,0,1,.61-.84l11.409-5.582a2.623,2.623,0,0,1,2.079,0l11.409,5.582a.958.958,0,0,1,.612.835.969.969,0,0,1-.61.84Z" transform="translate(-4.208 -290.976)" fill="#747373"/>
    <path id="Path_33" data-name="Path 33" d="M21.044,306.811a2.63,2.63,0,0,1-2.077,0l-11.409-5.58-.372.757,11.409,5.58a3.468,3.468,0,0,0,2.821,0l11.409-5.58-.37-.759Z" transform="translate(-3.635 -283.703)" fill="#747373"/>
    <path id="Path_34" data-name="Path 34" d="M21.044,316.688a2.621,2.621,0,0,1-2.077,0l-11.409-5.58-.372.757,11.409,5.58a3.467,3.467,0,0,0,2.821,0l11.409-5.58-.37-.757ZM17.3,299.023a4.675,4.675,0,0,0-.8-.23,1.9,1.9,0,0,1-.723-.259.408.408,0,0,1-.14-.321.477.477,0,0,1,.2-.383,1.016,1.016,0,0,1,.633-.159.977.977,0,0,1,.631.174.748.748,0,0,1,.251.519l.459-.034a1.094,1.094,0,0,0-.179-.57,1.033,1.033,0,0,0-.472-.383,1.848,1.848,0,0,0-.71-.13,1.758,1.758,0,0,0-.665.123.972.972,0,0,0-.453.363.912.912,0,0,0-.155.512.834.834,0,0,0,.125.449.981.981,0,0,0,.387.338,3.266,3.266,0,0,0,.7.225,6.63,6.63,0,0,1,.644.176.729.729,0,0,1,.325.215.47.47,0,0,1,.1.3.5.5,0,0,1-.1.308.657.657,0,0,1-.31.223,1.317,1.317,0,0,1-.485.083,1.36,1.36,0,0,1-.555-.108.813.813,0,0,1-.366-.281,1.026,1.026,0,0,1-.149-.446l-.451.04a1.221,1.221,0,0,0,.2.65,1.14,1.14,0,0,0,.521.429,2.073,2.073,0,0,0,.823.145,1.635,1.635,0,0,0,.7-.142,1.078,1.078,0,0,0,.476-.4.98.98,0,0,0,.166-.544.9.9,0,0,0-.151-.514,1.093,1.093,0,0,0-.468-.37Zm3.694-1.4a1.21,1.21,0,0,0-.531-.259,3.056,3.056,0,0,0-.644-.053H18.57v3.62h1.307a2.489,2.489,0,0,0,.58-.062,1.332,1.332,0,0,0,.432-.183,1.265,1.265,0,0,0,.329-.327,1.763,1.763,0,0,0,.249-.527,2.542,2.542,0,0,0,.1-.731,2.4,2.4,0,0,0-.142-.859A1.479,1.479,0,0,0,20.993,297.622Zm-.019,2.168a1.126,1.126,0,0,1-.266.457.808.808,0,0,1-.325.189,1.931,1.931,0,0,1-.561.066h-.772v-2.766h.759a1.886,1.886,0,0,1,.621.074.94.94,0,0,1,.453.408,1.7,1.7,0,0,1,.187.874A2.227,2.227,0,0,1,20.974,299.79Zm4.154-2.481h-.65l-1.8,1.8v-1.8H22.2v3.62h.478v-1.254l.593-.578,1.288,1.832h.631l-1.584-2.153Z" transform="translate(-3.635 -288.184)" fill="#747373"/>
  </g>
</svg>
