<svg xmlns="http://www.w3.org/2000/svg" width="27.832" height="27.84" viewBox="0 0 27.832 27.84">
  <path id="setting_and_preferences" data-name="setting and preferences" d="M32.207,381.762a3.579,3.579,0,0,1,2.3-3.34,14.136,14.136,0,0,0-1.718-4.139,3.656,3.656,0,0,1-1.456.31,3.573,3.573,0,0,1-3.269-5.029,14.111,14.111,0,0,0-4.13-1.717,3.579,3.579,0,0,1-6.683,0,14.136,14.136,0,0,0-4.139,1.717,3.574,3.574,0,0,1-3.269,5.029,3.51,3.51,0,0,1-1.456-.31,14.5,14.5,0,0,0-1.711,4.145,3.58,3.58,0,0,1,.006,6.683,14.251,14.251,0,0,0,1.718,4.139,3.575,3.575,0,0,1,4.719,4.719,14.3,14.3,0,0,0,4.139,1.718,3.571,3.571,0,0,1,6.668,0,14.252,14.252,0,0,0,4.139-1.718,3.58,3.58,0,0,1,4.719-4.719,14.3,14.3,0,0,0,1.718-4.139A3.6,3.6,0,0,1,32.207,381.762Zm-11.553,5.793a5.8,5.8,0,1,1,5.8-5.8h0a5.8,5.8,0,0,1-5.795,5.8Z" transform="translate(-6.671 -367.847)" fill="#747373"/>
</svg>
