<svg xmlns="http://www.w3.org/2000/svg" width="25.82" height="25.793" viewBox="0 0 25.82 25.793">
  <path id="Setting" d="M591.81,26.5l-2.319-.172a10.306,10.306,0,0,0-1.2-2.891l1.546-1.775a.573.573,0,0,0-.03-.773l-2.433-2.433a.571.571,0,0,0-.773-.028l-1.775,1.546a10.293,10.293,0,0,0-2.891-1.2l-.172-2.319a.589.589,0,0,0-.572-.544h-3.435a.568.568,0,0,0-.572.544l-.172,2.319a10.292,10.292,0,0,0-2.891,1.2l-1.775-1.546a.571.571,0,0,0-.773.028l-2.433,2.433a.571.571,0,0,0-.028.773l1.546,1.775a10.261,10.261,0,0,0-1.2,2.891l-2.319.172a.589.589,0,0,0-.544.572V30.5a.568.568,0,0,0,.544.572l2.347.171a10.323,10.323,0,0,0,1.2,2.893l-1.546,1.773a.571.571,0,0,0,.028.773L571.6,39.12a.571.571,0,0,0,.773.028l1.775-1.546a10.292,10.292,0,0,0,2.891,1.2l.172,2.347a.589.589,0,0,0,.572.544h3.435a.57.57,0,0,0,.574-.544l.171-2.347a10.292,10.292,0,0,0,2.891-1.2l1.775,1.546a.544.544,0,0,0,.773-.028l2.434-2.434a.575.575,0,0,0,.028-.773l-1.546-1.773a10.321,10.321,0,0,0,1.2-2.893l2.347-.171a.589.589,0,0,0,.544-.572V27.067A.668.668,0,0,0,591.81,26.5Zm-.6,3.463-2.234.144a.577.577,0,0,0-.515.458,9.18,9.18,0,0,1-1.345,3.291.564.564,0,0,0,.057.688l1.461,1.69-1.66,1.66-1.69-1.461a.567.567,0,0,0-.688-.057,9.2,9.2,0,0,1-3.291,1.345.579.579,0,0,0-.458.515l-.2,2.29H578.27l-.144-2.232a.576.576,0,0,0-.457-.515,9.193,9.193,0,0,1-3.293-1.347.565.565,0,0,0-.688.059L572,37.946l-1.661-1.66L571.8,34.6a.56.56,0,0,0,.057-.686,9.828,9.828,0,0,1-1.373-3.293.578.578,0,0,0-.515-.458l-2.234-.2V27.583l2.234-.142a.578.578,0,0,0,.515-.458,8.79,8.79,0,0,1,1.373-3.293A.557.557,0,0,0,571.8,23l-1.461-1.69L572,19.654l1.688,1.459a.565.565,0,0,0,.688.059,9.8,9.8,0,0,1,3.293-1.375.576.576,0,0,0,.457-.515l.172-2.232h2.376l.144,2.232a.578.578,0,0,0,.458.515,8.768,8.768,0,0,1,3.291,1.375.562.562,0,0,0,.688-.059l1.688-1.459,1.661,1.66L587.144,23a.562.562,0,0,0-.057.686,9.221,9.221,0,0,1,1.345,3.293.577.577,0,0,0,.515.458l2.234.142v2.376Zm-11.737-8.616a7.443,7.443,0,1,0,7.442,7.443A7.465,7.465,0,0,0,579.472,21.342Zm0,13.741a6.3,6.3,0,1,1,6.3-6.3A6.317,6.317,0,0,1,579.472,35.083Z" transform="translate(-566.59 -15.903)" fill="#1628c9"/>
</svg>
