<svg xmlns="http://www.w3.org/2000/svg" width="27.563" height="27.002" viewBox="0 0 27.563 27.002">
  <g id="Support" transform="translate(0 0)">
    <path id="Path_52" data-name="Path 52" d="M20.89,414.27H15.64a.2.2,0,0,1-.2-.2v-4.485a.2.2,0,0,1,.023-.091l2.566-4.927a1.5,1.5,0,0,1,2.6-.108l.006.008a5.232,5.232,0,0,0-.572-2.806l-2.916-6.926a1.532,1.532,0,0,1,2.789-1.267l3.911,8.056a6.456,6.456,0,0,1,.121,5.384l-2.88,6.675v.487a.2.2,0,0,1-.2.2Zm-5.053-.4h4.855v-.329a.2.2,0,0,1,.015-.079l2.9-6.713a6.063,6.063,0,0,0-.113-5.053l-3.913-8.058a1.135,1.135,0,0,0-2.066.94l2.91,6.915a5.512,5.512,0,0,1,.4,4.126,1.494,1.494,0,0,1-.1.287l-2,4.215a.2.2,0,0,1-.264.1h0a.2.2,0,0,1-.094-.266h0l1.781-3.748c.1-.208.193-.419.283-.631l.017-.055a1.106,1.106,0,0,0-2.056-.769l-2.542,4.885v4.239Z" transform="translate(3.066 -392.603)" fill="#747373"/>
    <path id="Path_53" data-name="Path 53" d="M23.041,403.844a5.507,5.507,0,0,1-.451,2.183l-2.863,6.762H15.888v-3.522l2.481-4.764a.553.553,0,0,1,.487-.3.538.538,0,0,1,.466.257.535.535,0,0,1,.032.529l-2.062,4.336,1.36.651,1.571-3.32a4.939,4.939,0,0,0,.9-2.865,7.882,7.882,0,0,0-.689-3.021l-2.91-6.915a.559.559,0,0,1-.047-.227.579.579,0,0,1,1.1-.251l3.911,8.056A5.529,5.529,0,0,1,23.041,403.844Z" transform="translate(3.57 -392.098)" fill="#747373"/>
    <path id="Path_54" data-name="Path 54" d="M24.338,408.341H14.59a.2.2,0,0,1-.2-.2v-5.336a.2.2,0,0,1,.2-.2h9.748a.2.2,0,0,1,.2.2v5.336a.2.2,0,0,1-.2.2Zm-9.551-.4H24.14v-4.94H14.787v4.94Z" transform="translate(1.886 -381.339)" fill="#747373"/>
    <path id="Path_55" data-name="Path 55" d="M14.829,403.047h8.286v3.873H14.829Z" transform="translate(2.378 -380.847)" fill="#747373"/>
    <path id="Path_56" data-name="Path 56" d="M25.159,418.523a.991.991,0,1,1,.988-.99A.992.992,0,0,1,25.159,418.523Zm0-1.586a.6.6,0,1,0,.593.6A.6.6,0,0,0,25.159,416.937ZM10.343,414.27a.2.2,0,0,1-.2-.2v-.487l-2.88-6.675a6.464,6.464,0,0,1,.121-5.384L11.3,393.47a1.531,1.531,0,0,1,2.787,1.267l-2.91,6.915a5.267,5.267,0,0,0-.578,2.817l.006-.008a1.5,1.5,0,0,1,2.6.108l2.566,4.927a.2.2,0,0,1,.023.091v4.485a.2.2,0,0,1-.2.2ZM12.671,393a1.131,1.131,0,0,0-1.018.642L7.741,401.7a6.055,6.055,0,0,0-.113,5.053l2.9,6.713a.2.2,0,0,1,.017.079v.329H15.4v-4.239l-2.544-4.885a1.106,1.106,0,0,0-2.056.769l.017.055c.021.049.134.317.283.631l1.783,3.748a.2.2,0,1,1-.359.17h0l-2-4.215a1.488,1.488,0,0,1-.1-.287,5.515,5.515,0,0,1,.4-4.137l2.9-6.9a1.131,1.131,0,0,0-.578-1.479,1.16,1.16,0,0,0-.47-.1Z" transform="translate(-6.734 -392.603)" fill="#747373"/>
    <path id="Path_57" data-name="Path 57" d="M7.182,403.844a5.472,5.472,0,0,0,.453,2.183l2.861,6.762h3.839v-3.522L11.854,404.5a.55.55,0,0,0-.487-.3.556.556,0,0,0-.551.549.551.551,0,0,0,.055.238l2.062,4.336-1.363.651L10,406.66a4.939,4.939,0,0,1-.9-2.865,7.882,7.882,0,0,1,.689-3.021l2.91-6.915a.559.559,0,0,0,.047-.227.579.579,0,0,0-1.1-.251l-3.911,8.056A5.529,5.529,0,0,0,7.182,403.844Z" transform="translate(-6.23 -392.098)" fill="#747373"/>
    <path id="Path_58" data-name="Path 58" d="M17.217,408.341H7.469a.2.2,0,0,1-.2-.2v-5.336a.2.2,0,0,1,.2-.2h9.748a.2.2,0,0,1,.2.2v5.336a.2.2,0,0,1-.2.2Zm-9.551-.4h9.353v-4.94H7.666Z" transform="translate(-6.13 -381.339)" fill="#747373"/>
    <path id="Path_59" data-name="Path 59" d="M7.708,403.047h8.286v3.873H7.708Z" transform="translate(-5.638 -380.847)" fill="#747373"/>
    <path id="Path_60" data-name="Path 60" d="M11.467,399.847a.973.973,0,0,1-.971-.971v-1.909a.973.973,0,0,1,1.945,0v1.909A.973.973,0,0,1,11.467,399.847Zm10.407.179a.972.972,0,0,1-.971-.971v-2.087a.973.973,0,0,1,1.945,0v2.087A.973.973,0,0,1,21.875,400.025Z" transform="translate(-2.5 -388.786)" fill="#747373"/>
    <path id="Path_61" data-name="Path 61" d="M11.572,400.149A1.171,1.171,0,0,1,10.4,398.98v-1.909a1.17,1.17,0,0,1,2.34,0v1.909A1.172,1.172,0,0,1,11.572,400.149Zm0-3.852a.774.774,0,0,0-.774.774v1.909a.774.774,0,0,0,1.548,0v-1.909A.774.774,0,0,0,11.572,396.3Zm10.407,4.03a1.171,1.171,0,0,1-1.169-1.169v-2.087a1.17,1.17,0,0,1,2.34,0v2.087A1.172,1.172,0,0,1,21.98,400.328Zm0-4.03a.774.774,0,0,0-.774.774v2.087a.774.774,0,1,0,1.548,0v-2.087A.774.774,0,0,0,21.98,396.3Z" transform="translate(-2.605 -388.89)" fill="#747373"/>
    <path id="Path_62" data-name="Path 62" d="M21.663,399.3h-.4v-.842a5.006,5.006,0,0,0-10.012,0v.842h-.4v-.842a5.4,5.4,0,1,1,10.8,0Zm-1.894,6.677H15.4a.2.2,0,0,1-.2-.2v-1.346a.2.2,0,0,1,.2-.2h1.73a.2.2,0,0,1,.2.2v1.146h2.445a1.5,1.5,0,0,0,1.5-1.5v-.75h.4v.75a1.9,1.9,0,0,1-1.894,1.9Zm-4.173-.4h1.333v-.948H15.6Z" transform="translate(-2.09 -392.092)" fill="#747373"/>
    <path id="Path_63" data-name="Path 63" d="M17.231,397.3a.743.743,0,0,1,.653-.742,2.862,2.862,0,0,0-.325-.787.748.748,0,0,1-1.05-1.048,2.866,2.866,0,0,0-.787-.327.746.746,0,0,1-1.482,0,2.866,2.866,0,0,0-.787.327.747.747,0,0,1-1.05,1.046,3.042,3.042,0,0,0-.325.789.746.746,0,0,1,0,1.482,3.011,3.011,0,0,0,.325.789.747.747,0,0,1,1.05,1.048,2.935,2.935,0,0,0,.787.327.746.746,0,0,1,1.482,0,2.949,2.949,0,0,0,.789-.327.748.748,0,0,1,1.048-1.05,2.91,2.91,0,0,0,.325-.786A.743.743,0,0,1,17.231,397.3Zm-2.249,1.039a1.041,1.041,0,1,1,1.042-1.039A1.042,1.042,0,0,1,14.982,398.337Z" transform="translate(-0.719 -390.588)" fill="#747373"/>
    <path id="Path_64" data-name="Path 64" d="M15.827,400.5a.2.2,0,0,1-.2-.174.548.548,0,0,0-1.088,0,.2.2,0,0,1-.221.172l-.026,0a3.1,3.1,0,0,1-.84-.351.2.2,0,0,1-.068-.272l.015-.019a.549.549,0,0,0-.772-.769.2.2,0,0,1-.278-.034l-.015-.021a3.153,3.153,0,0,1-.346-.84.2.2,0,0,1,.142-.24l.023,0a.548.548,0,0,0,0-1.088.2.2,0,0,1-.174-.221l.006-.026a3.154,3.154,0,0,1,.346-.84.2.2,0,0,1,.272-.07l.021.015a.549.549,0,0,0,.772-.77.2.2,0,0,1,.034-.278l.019-.013a3.017,3.017,0,0,1,.842-.349.2.2,0,0,1,.24.142l0,.026a.549.549,0,0,0,1.088,0,.2.2,0,0,1,.221-.172l.023,0a3.031,3.031,0,0,1,.84.349.2.2,0,0,1,.068.272l-.015.019a.55.55,0,0,0,.774.77.2.2,0,0,1,.278.036l.013.019a3.16,3.16,0,0,1,.349.84.2.2,0,0,1-.145.242l-.023,0a.548.548,0,0,0,0,1.088.2.2,0,0,1,.172.221l0,.023a3.114,3.114,0,0,1-.349.84.2.2,0,0,1-.272.068l-.019-.013a.549.549,0,0,0-.772.769.2.2,0,0,1-.034.279l-.019.013a3.111,3.111,0,0,1-.842.351.184.184,0,0,1-.049.006Zm-1.994-.6a2.577,2.577,0,0,0,.372.155.945.945,0,0,1,1.764,0,2.681,2.681,0,0,0,.372-.155.946.946,0,0,1,1.248-1.248,2.952,2.952,0,0,0,.153-.37.946.946,0,0,1,0-1.764,2.845,2.845,0,0,0-.153-.372.948.948,0,0,1-1.25-1.248,2.549,2.549,0,0,0-.37-.155.945.945,0,0,1-1.764,0,2.677,2.677,0,0,0-.372.155.946.946,0,0,1-1.248,1.248,2.856,2.856,0,0,0-.155.372.945.945,0,0,1,0,1.764,2.57,2.57,0,0,0,.155.37.946.946,0,0,1,1.248,1.248Zm1.254-1.261a1.24,1.24,0,1,1,1.239-1.239A1.242,1.242,0,0,1,15.087,398.642Zm0-2.083a.843.843,0,1,0,.844.844.845.845,0,0,0-.844-.844Z" transform="translate(-0.824 -390.693)" fill="#747373"/>
  </g>
</svg>
