<svg id="wifi" xmlns="http://www.w3.org/2000/svg" width="33.601" height="25.366" viewBox="0 0 33.601 25.366">
  <path id="Icon_metro-wifi-connect" data-name="Icon metro-wifi-connect" d="M638.092,31.222a10.15,10.15,0,0,1,7.2,2.987l-2.4,2.4a6.778,6.778,0,0,0-9.585-.011l-.01.011-2.4-2.4A10.145,10.145,0,0,1,638.092,31.222Zm-12-1.817a16.971,16.971,0,0,1,24,0h0l-2.4,2.4a13.579,13.579,0,0,0-19.2,0Zm21.249-9.891a23.708,23.708,0,0,1,7.553,5.091l-2.4,2.4a20.367,20.367,0,0,0-28.8,0l-2.4-2.4A23.784,23.784,0,0,1,647.341,19.513Z" transform="translate(-621.293 -17.645)" fill="#1628c9"/>
  <path id="Icon_awesome-wifi" data-name="Icon awesome-wifi" d="M630.343,27.541a2.165,2.165,0,1,0,2.166,2.164h0a2.165,2.165,0,0,0-2.164-2.164Z" transform="translate(-613.544 -6.505)" fill="#1628c9"/>
</svg>
