<svg xmlns="http://www.w3.org/2000/svg" width="12.108" height="15.038" viewBox="0 0 12.108 15.038">
  <g id="Layer_13" data-name="Layer 13" transform="translate(-269.767 -225.717)">
    <g id="Group_2" data-name="Group 2">
      <g id="Group_1" data-name="Group 1">
        <path id="Path_2" data-name="Path 2" d="M280.56,230.688h-.917v-1.144a3.827,3.827,0,1,0-7.654,0v1.144h-.919a1.309,1.309,0,0,0-1.3,1.3v7.449a1.312,1.312,0,0,0,1.3,1.315h9.49a1.315,1.315,0,0,0,1.315-1.315v-7.449A1.312,1.312,0,0,0,280.56,230.688Zm-6.841-1.144a2.1,2.1,0,1,1,4.2,0v1.144h-4.2Zm2.8,7.763v1.9a.143.143,0,0,1-.15.138h-.911a.141.141,0,0,1-.138-.138v-1.9a1.672,1.672,0,1,1,1.2,0Z" fill="#2f6855"/>
      </g>
    </g>
  </g>
</svg>
