<svg xmlns="http://www.w3.org/2000/svg" width="11.811" height="11.564" viewBox="0 0 11.811 11.564">
  <path id="Path_2" data-name="Path 2" d="M693.328,27.231l-.3-.708a12.752,12.752,0,0,0,.632-1.625l-.918-.9a12.63,12.63,0,0,0-1.629.653l-.723-.293a12.676,12.676,0,0,0-.725-1.586h-1.3a12.072,12.072,0,0,0-.681,1.59l-.721.293a13.448,13.448,0,0,0-1.66-.619l-.917.9a12.207,12.207,0,0,0,.667,1.595l-.3.707a13.57,13.57,0,0,0-1.621.709v1.27a12.5,12.5,0,0,0,1.625.667l.3.706a12.9,12.9,0,0,0-.633,1.624l.918.9a12.884,12.884,0,0,0,1.628-.653l.724.293a12.663,12.663,0,0,0,.725,1.585h1.3a12.072,12.072,0,0,0,.681-1.59l.723-.293a13.563,13.563,0,0,0,1.657.62l.918-.9a12.03,12.03,0,0,0-.668-1.6l.3-.707a13.428,13.428,0,0,0,1.621-.711V27.9A12.606,12.606,0,0,0,693.328,27.231Zm-2.388,1.325a1.894,1.894,0,1,1-1.894-1.851A1.877,1.877,0,0,1,690.94,28.556Z" transform="translate(-683.14 -22.775)" fill="#2f6855"/>
</svg>
