<svg xmlns="http://www.w3.org/2000/svg" width="748" height="557.35" viewBox="0 0 748 557.35">
  <g id="forget_password" data-name="forget password" transform="translate(0 -0.05)">
    <g id="Background_Complete" data-name="Background Complete" transform="translate(0 0.05)">
      <rect id="Rectangle_738" data-name="Rectangle 738" width="748" height="0.374" transform="translate(0 489.79)" fill="#ebebeb"/>
      <rect id="Rectangle_739" data-name="Rectangle 739" width="38.088" height="0.374" transform="translate(434.154 499.978)" fill="#ebebeb"/>
      <rect id="Rectangle_740" data-name="Rectangle 740" width="90.254" height="0.374" transform="translate(591.085 508.072)" fill="#ebebeb"/>
      <rect id="Rectangle_741" data-name="Rectangle 741" width="93.246" height="0.374" transform="translate(332.8 500.158)" fill="#ebebeb"/>
      <rect id="Rectangle_742" data-name="Rectangle 742" width="19.508" height="0.374" transform="translate(252.824 511.348)" fill="#ebebeb"/>
      <rect id="Rectangle_743" data-name="Rectangle 743" width="88.832" height="0.374" transform="translate(291.286 511.348)" fill="#ebebeb"/>
      <rect id="Rectangle_744" data-name="Rectangle 744" width="57.521" height="0.374" transform="translate(78.48 505.035)" fill="#ebebeb"/>
      <path id="Path_293" data-name="Path 293" d="M335.6,478.069H46.737a8.542,8.542,0,0,1-8.527-8.542V63.467A8.542,8.542,0,0,1,46.737,55H335.6a8.542,8.542,0,0,1,8.542,8.542V469.527A8.542,8.542,0,0,1,335.6,478.069ZM46.737,55.3a8.168,8.168,0,0,0-8.153,8.168V469.527a8.168,8.168,0,0,0,8.153,8.168H335.6a8.183,8.183,0,0,0,8.168-8.168V63.467A8.183,8.183,0,0,0,335.6,55.3Z" transform="translate(18.952 -55)" fill="#ebebeb"/>
      <path id="Path_294" data-name="Path 294" d="M551.92,478.069H263.042a8.557,8.557,0,0,1-8.542-8.542V63.467A8.557,8.557,0,0,1,263.042,55H551.92a8.542,8.542,0,0,1,8.512,8.467V469.527A8.542,8.542,0,0,1,551.92,478.069ZM263.042,55.3a8.183,8.183,0,0,0-8.168,8.168V469.527a8.183,8.183,0,0,0,8.168,8.168H551.92a8.183,8.183,0,0,0,8.168-8.168V63.467A8.183,8.183,0,0,0,551.92,55.3Z" transform="translate(126.232 -55)" fill="#ebebeb"/>
      <path id="Path_295" data-name="Path 295" d="M230.893,263.774H131.559L125.53,194.21h99.334Z" transform="translate(62.263 96.253)" fill="#e6e6e6"/>
      <path id="Path_296" data-name="Path 296" d="M234.333,263.774H135L128.97,194.21H228.3Z" transform="translate(63.969 96.253)" fill="#f0f0f0"/>
      <path id="Path_297" data-name="Path 297" d="M143.181,243.889,139.86,204.2h69.459l3.321,39.689Z" transform="translate(69.371 101.208)" fill="#fff"/>
      <rect id="Rectangle_745" data-name="Rectangle 745" width="11.654" height="129.748" transform="translate(303.838 360.027)" fill="#e6e6e6"/>
      <rect id="Rectangle_746" data-name="Rectangle 746" width="8.093" height="129.748" transform="translate(311.078 360.027)" fill="#f0f0f0"/>
      <rect id="Rectangle_747" data-name="Rectangle 747" width="112.813" height="14.317" transform="translate(319.172 374.344) rotate(180)" fill="#f0f0f0"/>
      <rect id="Rectangle_748" data-name="Rectangle 748" width="11.654" height="115.431" transform="translate(198.684 374.359)" fill="#e6e6e6"/>
      <rect id="Rectangle_749" data-name="Rectangle 749" width="8.093" height="115.431" transform="translate(205.924 374.359)" fill="#f0f0f0"/>
      <rect id="Rectangle_750" data-name="Rectangle 750" width="11.654" height="115.431" transform="translate(115.731 374.359)" fill="#e6e6e6"/>
      <rect id="Rectangle_751" data-name="Rectangle 751" width="8.093" height="115.431" transform="translate(122.971 374.359)" fill="#f0f0f0"/>
      <rect id="Rectangle_752" data-name="Rectangle 752" width="11.654" height="115.431" transform="translate(230.085 374.359)" fill="#e6e6e6"/>
      <rect id="Rectangle_753" data-name="Rectangle 753" width="8.093" height="115.431" transform="translate(237.31 374.359)" fill="#f0f0f0"/>
      <rect id="Rectangle_754" data-name="Rectangle 754" width="90.628" height="14.317" transform="translate(115.731 360.027)" fill="#e6e6e6"/>
      <rect id="Rectangle_755" data-name="Rectangle 755" width="350.558" height="195.168" transform="translate(193.747 36.517)" fill="#e0e0e0"/>
      <rect id="Rectangle_756" data-name="Rectangle 756" width="368.046" height="195.168" transform="translate(195.512 36.517)" fill="#f5f5f5"/>
      <rect id="Rectangle_757" data-name="Rectangle 757" width="183.14" height="356.018" transform="translate(557.544 42.531) rotate(90)" fill="#fff"/>
      <path id="Path_298" data-name="Path 298" d="M267.848,211.62,335.064,28.48H224.135L156.92,211.62Z" transform="translate(77.832 14.051)" fill="#f5f5f5"/>
      <path id="Path_299" data-name="Path 299" d="M330.186,211.62,397.4,28.48H313.715L246.5,211.62Z" transform="translate(122.264 14.051)" fill="#f5f5f5"/>
      <rect id="Rectangle_758" data-name="Rectangle 758" width="29.8" height="186.402" transform="translate(625.612 303.389)" fill="#e6e6e6"/>
      <path id="Path_300" data-name="Path 300" d="M435.593,332.212h7.839V317.85H427.38Z" transform="translate(211.98 157.579)" fill="#fafafa"/>
      <rect id="Rectangle_759" data-name="Rectangle 759" width="29.8" height="186.402" transform="translate(350.857 303.389)" fill="#e6e6e6"/>
      <rect id="Rectangle_760" data-name="Rectangle 760" width="281.592" height="182.527" transform="translate(373.82 303.389)" fill="#fafafa"/>
      <path id="Path_301" data-name="Path 301" d="M524.376,314.262H253.45V262.71H524.376Zm-269.43-1.5H522.88v-48.56H254.946Z" transform="translate(125.711 48.024)" fill="#e6e6e6"/>
      <path id="Path_302" data-name="Path 302" d="M466.242,285.6H295.953c-7.9,0-15.513-6.373-20.944-17.5l-.509-1.062H487.68l-.509,1.062C481.7,279.222,474.216,285.6,466.242,285.6ZM276.953,268.481c5.056,9.919,11.968,15.573,19,15.573h170.29c7.061,0,13.943-5.655,19-15.573Z" transform="translate(136.152 50.167)" fill="#e6e6e6"/>
      <path id="Path_303" data-name="Path 303" d="M257.719,332.212H249.88V317.85h16.052Z" transform="translate(123.941 157.579)" fill="#fafafa"/>
      <path id="Path_304" data-name="Path 304" d="M524.376,353.072H253.45V301.58H524.376Zm-269.43-1.5H522.88v-48.5H254.946Z" transform="translate(125.711 67.304)" fill="#e6e6e6"/>
      <path id="Path_305" data-name="Path 305" d="M466.242,324.47H295.953c-7.9,0-15.513-6.388-20.944-17.5l-.509-1.077H487.68l-.509,1.077C481.7,318.022,474.216,324.47,466.242,324.47ZM276.953,307.386c5.056,9.918,11.968,15.588,19,15.588h170.29c7.061,0,13.943-5.67,19-15.588Z" transform="translate(136.152 69.442)" fill="#e6e6e6"/>
      <path id="Path_306" data-name="Path 306" d="M524.376,391.992H253.45V340.44H524.376Zm-269.43-1.5H522.88v-48.56H254.946Z" transform="translate(125.711 86.578)" fill="#e6e6e6"/>
      <path id="Path_307" data-name="Path 307" d="M466.242,363.325H295.953c-7.9,0-15.513-6.373-20.944-17.488l-.509-1.077H487.68l-.509,1.077C481.7,356.952,474.216,363.325,466.242,363.325ZM276.953,346.256c5.056,9.919,11.968,15.573,19,15.573h170.29c7.061,0,13.943-5.655,19-15.573Z" transform="translate(136.152 88.721)" fill="#e6e6e6"/>
      <path id="Path_308" data-name="Path 308" d="M133.122,219.33v3.62h-2.3L128.9,251.314H100.719l-1.9-28.364H96.5v-3.62Z" transform="translate(47.864 108.713)" fill="#e6e6e6"/>
      <path id="Path_309" data-name="Path 309" d="M144.763,238.043c-2.3-16.9-25.118-21.722-54.065-22.35C63.156,215.109,54.33,205.37,54.33,205.37s.09,39.449,39.779,53.751C131.793,272.675,147.082,254.977,144.763,238.043Z" transform="translate(26.948 19.584)" fill="#e6e6e6"/>
      <path id="Path_310" data-name="Path 310" d="M105.4,259.357c.479-6.941,11.579-19.717,38.283-13.913,19.3,4.2,26.479-5.8,26.479-5.8s-1.8,28.244-30.818,36.727C111.775,284.43,104.549,271.594,105.4,259.357Z" transform="translate(52.247 36.581)" fill="#e6e6e6"/>
      <path id="Path_311" data-name="Path 311" d="M111.965,309.61a1.032,1.032,0,0,0,.793-.359c1.93-2.289.344-7.764-1.84-15.349-2.812-9.724-6.313-21.842-3.351-30.623a123.176,123.176,0,0,1,5.745-13.584c4.189-8.856,7.809-16.456,4.787-24.5a1.032,1.032,0,1,0-1.93.733c2.708,7.166-.568,14.107-4.727,22.9a128.037,128.037,0,0,0-5.834,13.793c-3.157,9.395.434,21.857,3.321,31.85,1.705,5.984,3.471,11.968,2.259,13.464a1.017,1.017,0,0,0,.12,1.5A.987.987,0,0,0,111.965,309.61Z" transform="translate(51.772 29.084)" fill="#e6e6e6"/>
    </g>
    <g id="Shadow" transform="translate(83.941 523.53)">
      <ellipse id="_Path_" data-name="&lt;Path&gt;" cx="290.059" cy="16.935" rx="290.059" ry="16.935" fill="#f5f5f5"/>
    </g>
    <g id="Login" transform="translate(149.884 105.653)">
      <path id="Path_312" data-name="Path 312" d="M324.246,419.372H111.814L100.19,77.73H312.622Z" transform="translate(-100.19 -67.123)" fill="#407bff"/>
      <path id="Path_313" data-name="Path 313" d="M331.341,412.281H118.909L107.27,70.64H319.7Z" transform="translate(-96.678 -70.64)" fill="#407bff"/>
      <path id="Path_314" data-name="Path 314" d="M331.341,412.281H118.909L107.27,70.64H319.7Z" transform="translate(-96.678 -70.64)" fill="#fff" opacity="0.3"/>
      <ellipse id="Ellipse_62" data-name="Ellipse 62" cx="58.748" cy="60.782" rx="58.748" ry="60.782" transform="matrix(0.701, -0.713, 0.713, 0.701, 35.611, 97.242)" fill="#407bff"/>
      <path id="Path_315" data-name="Path 315" d="M246.186,207.458a47.872,47.872,0,0,1-5.161,23.487,47.259,47.259,0,0,1-42.486,25.821,51.253,51.253,0,0,1-44.222-25.821,50.1,50.1,0,0,1-6.762-23.487,47.333,47.333,0,0,1,47.633-49.368A51.4,51.4,0,0,1,246.186,207.458Z" transform="translate(-76.719 -109.47)" fill="#fff"/>
      <path id="Path_316" data-name="Path 316" d="M238.748,211.15a47.259,47.259,0,0,1-42.486,25.821A51.253,51.253,0,0,1,152.04,211.15,75.682,75.682,0,0,1,194.975,198a80.006,80.006,0,0,1,43.773,13.15Z" transform="translate(-74.472 -89.675)" fill="#407bff" opacity="0.6"/>
      <ellipse id="Ellipse_63" data-name="Ellipse 63" cx="21.602" cy="22.35" rx="21.602" ry="22.35" transform="matrix(0.701, -0.713, 0.713, 0.701, 88.489, 80.825)" fill="#407bff" opacity="0.6"/>
      <path id="Path_317" data-name="Path 317" d="M273.75,225.238H138.243l-.913-26.928H272.838Z" transform="translate(-81.769 -7.316)" fill="#fff"/>
      <path id="Path_318" data-name="Path 318" d="M274.855,257.408H139.333l-.913-26.928H273.943Z" transform="translate(-81.228 8.641)" fill="#fff"/>
      <path id="Path_319" data-name="Path 319" d="M206.156,287.918,173.5,292.406a2.274,2.274,0,0,0-1.975,2.693l4.294,21.887a2.633,2.633,0,0,0,2.9,2.049l32.658-4.488a2.289,2.289,0,0,0,1.96-2.708l-4.279-21.886a2.618,2.618,0,0,0-2.9-2.035Zm-9.38,22.171-5.984.793-.583-7.061a4.189,4.189,0,0,1-2.438-2.992A3.725,3.725,0,0,1,191,296.34a4.279,4.279,0,0,1,4.727,3.336,3.665,3.665,0,0,1-1.167,3.486Z" transform="translate(-64.829 -45.087)" fill="#407bff"/>
      <path id="Path_320" data-name="Path 320" d="M202.486,293.1h0a2.334,2.334,0,0,1-2.573-1.81l-.419-2.139a12.312,12.312,0,0,0-12.9-9.814,10.472,10.472,0,0,0-9.664,12.551l.479,2.468a2,2,0,0,1-1.75,2.394h0a2.3,2.3,0,0,1-2.573-1.81l-.4-2.079a14.736,14.736,0,0,1,11.968-17.578,16.755,16.755,0,0,1,19.149,12.97l.479,2.453a2,2,0,0,1-1.8,2.394Z" transform="translate(-64.39 -51.456)" fill="#407bff"/>
      <path id="Path_321" data-name="Path 321" d="M244.113,279.5H155.893l-.583-17.533h88.2Z" transform="translate(-72.85 24.26)" fill="#407bff"/>
      <path id="Path_322" data-name="Path 322" d="M189.49,263.892a4.727,4.727,0,0,1-4.757,4.922,5.146,5.146,0,0,1-5.1-4.922,4.727,4.727,0,0,1,4.757-4.922,5.131,5.131,0,0,1,5.1,4.922Z" transform="translate(-60.789 -59.434)" fill="#263238"/>
      <path id="Path_323" data-name="Path 323" d="M175.265,263.892a4.712,4.712,0,0,1-4.757,4.922,5.131,5.131,0,0,1-5.086-4.922,4.727,4.727,0,0,1,4.757-4.922A5.116,5.116,0,0,1,175.265,263.892Z" transform="translate(-67.837 -59.434)" fill="#263238"/>
      <path id="Path_324" data-name="Path 324" d="M161.135,263.892a4.727,4.727,0,0,1-4.757,4.922,5.116,5.116,0,0,1-5.086-4.922,4.727,4.727,0,0,1,4.757-4.922A5.116,5.116,0,0,1,161.135,263.892Z" transform="translate(-74.846 -59.434)" fill="#263238"/>
      <path id="Path_325" data-name="Path 325" d="M203.655,263.877A4.727,4.727,0,0,1,198.9,268.8a5.116,5.116,0,0,1-5.086-4.922A4.712,4.712,0,0,1,198.583,259,5.116,5.116,0,0,1,203.655,263.877Z" transform="translate(-53.755 -59.419)" fill="#263238"/>
      <path id="Path_326" data-name="Path 326" d="M217.825,263.892a4.712,4.712,0,0,1-4.757,4.922,5.131,5.131,0,0,1-5.086-4.922,4.727,4.727,0,0,1,4.757-4.922,5.116,5.116,0,0,1,5.086,4.922Z" transform="translate(-46.727 -59.434)" fill="#263238"/>
    </g>
    <g id="Character" transform="translate(413.376 108.585)">
      <path id="Path_327" data-name="Path 327" d="M338.438,174.28c1.99,3.2,3.65,6.253,5.356,9.44s3.246,6.388,4.757,9.664a138.167,138.167,0,0,1,7.63,20.54c.269.883.464,1.825.688,2.738l.329,1.391.165.688.194,1.137a20.465,20.465,0,0,1-.464,7.719,43.744,43.744,0,0,1-4.668,11.145,88.593,88.593,0,0,1-13.284,17.4l-6.3-4.757a166.649,166.649,0,0,0,8.422-17.952,37.194,37.194,0,0,0,2.289-8.422,6.673,6.673,0,0,0-.12-2.648l-.6-1.825c-.239-.748-.464-1.5-.748-2.259a169.657,169.657,0,0,0-7.884-18.072c-2.992-5.984-6.208-11.968-9.425-17.683Z" transform="translate(-252.285 -104.372)" fill="#ff8b7b"/>
      <path id="Path_328" data-name="Path 328" d="M333.522,224.43l-6.882,3.635,7.9,9.245s4.937-3.336,5.161-8.422Z" transform="translate(-251.362 -79.498)" fill="#ff8b7b"/>
      <path id="Path_329" data-name="Path 329" d="M320.47,177.61l8.452,6.717,8.677-3.172-7.9-9.245Z" transform="translate(-254.423 -23.342)" fill="#ff8b7b"/>
      <path id="Path_330" data-name="Path 330" d="M301.819,142.135c-.165.838-.748,1.421-1.287,1.316s-.853-.883-.688-1.705.748-1.5,1.3-1.316S301.984,141.3,301.819,142.135Z" transform="translate(-264.675 -121.176)" fill="#263238"/>
      <path id="Path_331" data-name="Path 331" d="M302.5,142.52a30.307,30.307,0,0,1-5.415,6.313,4.922,4.922,0,0,0,3.83,1.5Z" transform="translate(-266.024 -120.125)" fill="#ff5652"/>
      <path id="Path_332" data-name="Path 332" d="M298.9,165.394V155.58l12.985,1.5s-.209,8.437-7.48,10.921Z" transform="translate(-265.121 -113.647)" fill="#ff8b7b"/>
      <path id="Path_333" data-name="Path 333" d="M302.62,95.91l9.141,2.633.165,6-12.985-1.571Z" transform="translate(-265.102 -61.038)" fill="#ff8b7b"/>
      <path id="Path_334" data-name="Path 334" d="M311.131,153.493l-9.141-2.633-1.78,3.411a14.556,14.556,0,0,0,8.437,12.686,14.3,14.3,0,0,0,2.648-7.48Z" transform="translate(-264.472 -115.988)" opacity="0.2"/>
      <path id="Path_335" data-name="Path 335" d="M305.231,139.723a.509.509,0,0,0,.374-.838,4.967,4.967,0,0,0-4.249-1.646.494.494,0,0,0-.4.568.509.509,0,0,0,.568.419h0a3.934,3.934,0,0,1,3.351,1.331.508.508,0,0,0,.359.165Z" transform="translate(-264.107 -122.758)" fill="#263238"/>
      <path id="Path_336" data-name="Path 336" d="M324.262,151.68c-1.5,7.7-2.424,18.371,2.992,23.5,0,0-2.094,7.809-16.456,7.809-15.723,0-7.555-6.852-7.555-6.852,6.538-2.035,6.478-9.47,4.982-15.454Z" transform="translate(-264.019 -115.581)" fill="#ff8b7b"/>
      <path id="Path_337" data-name="Path 337" d="M329.994,174.385c1.406-1.975,1.346-8.243-.15-9.35-2.409-1.78-12.746-2.2-26.659,1,1.5,6.074-1.705,9.245-1.705,9.245Z" transform="translate(-263.842 -109.638)" fill="#407bff"/>
      <path id="Path_338" data-name="Path 338" d="M352.78,408.98a3.426,3.426,0,0,1-2.633-.15,1.017,1.017,0,0,1-.239-1.152,1.152,1.152,0,0,1,.643-.733c1.421-.688,4.682.643,4.832.7a.239.239,0,0,1,.15.224.284.284,0,0,1-.135.239A14.711,14.711,0,0,1,352.78,408.98Zm-1.72-1.69a1.255,1.255,0,0,0-.284.1.628.628,0,0,0-.389.419c-.135.449,0,.6.09.643.568.479,2.663,0,4.144-.554A8.214,8.214,0,0,0,351.06,407.289Z" transform="translate(-239.863 10.932)" fill="#407bff"/>
      <path id="Path_339" data-name="Path 339" d="M354.8,409.071h-.12c-1.2-.344-3.74-2.154-3.77-3.336a.823.823,0,0,1,.643-.808,1.287,1.287,0,0,1,1.092.09c1.406.718,2.3,3.62,2.334,3.755a.239.239,0,0,1,0,.239A.21.21,0,0,1,354.8,409.071Zm-2.992-3.725h-.12c-.3.1-.3.254-.3.329,0,.7,1.705,2.124,2.992,2.693-.314-.838-1-2.5-1.915-2.992a.867.867,0,0,0-.643-.03Z" transform="translate(-239.324 9.989)" fill="#407bff"/>
      <path id="Path_340" data-name="Path 340" d="M300.939,410.262c-1.346,0-2.648-.195-3.082-.793a.943.943,0,0,1,0-1.092,1.242,1.242,0,0,1,.793-.583c1.75-.479,5.431,1.616,5.58,1.705a.225.225,0,0,1,.12.254.24.24,0,0,1-.195.21A18.251,18.251,0,0,1,300.939,410.262Zm-1.661-2.049a1.5,1.5,0,0,0-.479,0,.763.763,0,0,0-.494.344c-.179.314-.1.464,0,.553.494.688,3.142.7,5.1.419a11.385,11.385,0,0,0-4.129-1.317Z" transform="translate(-265.725 11.416)" fill="#407bff"/>
      <path id="Path_341" data-name="Path 341" d="M303.229,410.791h-.1c-1.272-.568-3.785-2.842-3.59-4.039,0-.284.239-.628.927-.688a1.8,1.8,0,0,1,1.376.419,7.151,7.151,0,0,1,1.646,4.054.3.3,0,0,1-.1.224.285.285,0,0,1-.15.03Zm-2.573-4.264h-.15c-.449,0-.479.209-.479.269-.12.718,1.586,2.513,2.887,3.291a5.79,5.79,0,0,0-1.391-3.246,1.316,1.316,0,0,0-.883-.314Z" transform="translate(-264.812 10.587)" fill="#407bff"/>
      <path id="Path_342" data-name="Path 342" d="M313.554,362.18H303.037l-1.047-24.37h10.517Z" transform="translate(-263.589 58.944)" fill="#ff8b7b"/>
      <path id="Path_343" data-name="Path 343" d="M368.185,358.374,357.907,360.6,347.57,337.894l10.293-2.214Z" transform="translate(-240.981 57.888)" fill="#ff8b7b"/>
      <path id="Path_344" data-name="Path 344" d="M358.768,407.435l11.564-2.5a.912.912,0,0,1,1.017.509l4.009,8.707a1.5,1.5,0,0,1-1.107,2.154c-4.039.793-6.059.987-11.13,2.079-3.127.688-10.188,2.409-14.511,3.336s-5.8-3.216-4.114-3.979c7.555-3.456,10.7-6.493,12.746-9.32A2.559,2.559,0,0,1,358.768,407.435Z" transform="translate(-242.844 10.024)" fill="#263238"/>
      <path id="Path_345" data-name="Path 345" d="M311.159,408.24h11.489a.928.928,0,0,1,.9.718l2.079,9.35a1.5,1.5,0,0,1-1.5,1.885c-4.144-.075-10.128-.314-15.334-.314-6.1,0-11.355.329-18.506.329-4.323,0-5.52-4.368-3.71-4.772,8.228-1.8,14.96-1.99,22.066-6.373a4.892,4.892,0,0,1,2.513-.823Z" transform="translate(-271.636 11.672)" fill="#263238"/>
      <path id="Path_346" data-name="Path 346" d="M335.566,169.1c9.859,2.259,17.952,27.437,17.952,27.437l-19.7,15.065a43.279,43.279,0,0,1-10.472-19.448C319.858,178.954,325.482,166.762,335.566,169.1Z" transform="translate(-253.511 -107.087)" fill="#407bff"/>
      <path id="Path_347" data-name="Path 347" d="M335.566,169.1c9.859,2.259,17.952,27.437,17.952,27.437l-19.7,15.065a43.279,43.279,0,0,1-10.472-19.448C319.858,178.954,325.482,166.762,335.566,169.1Z" transform="translate(-253.511 -107.087)" opacity="0.4"/>
      <path id="Path_348" data-name="Path 348" d="M306.509,203.91c-2.453,2.648-4.907,5.012-7.48,7.48-1.272,1.2-2.558,2.394-3.875,3.546l-1.99,1.75-.494.434-.853.688a11.968,11.968,0,0,1-2.887,1.705,9.41,9.41,0,0,1-3.65.748,8.976,8.976,0,0,1-3.142-.554,8.843,8.843,0,0,1-2.992-1.9,8.976,8.976,0,0,1-2.334-3.875,10.189,10.189,0,0,1-.434-2.229,15.121,15.121,0,0,1,0-2.663c.075-.718.165-1.346.284-1.93a37.034,37.034,0,0,1,1.735-5.984,53.544,53.544,0,0,1,2.319-5.416c.957-1.9,1.87-3.291,2.782-4.877a122.165,122.165,0,0,1,12.641-17.144,115.825,115.825,0,0,1,15.334-14.541l5.505,5.67c-3.86,5.176-7.66,10.726-11.175,16.187a175.424,175.424,0,0,0-9.574,16.83c-.643,1.406-1.5,2.992-1.9,4.129A40.153,40.153,0,0,0,292.94,206a26.122,26.122,0,0,0-.853,3.77,5.912,5.912,0,0,0,0,.6v-.135a4.156,4.156,0,0,0-.194-.987,6.418,6.418,0,0,0-1.72-2.783,7.331,7.331,0,0,0-2.468-1.5,7.15,7.15,0,0,0-2.513-.464,6.1,6.1,0,0,0-2.409.464,5.5,5.5,0,0,0-.748.374l.568-.524,1.81-1.646,3.575-3.351c2.364-2.229,4.742-4.608,6.986-6.822Z" transform="translate(-276.321 -111.876)" fill="#ff8b7b"/>
      <path id="Path_349" data-name="Path 349" d="M326.968,181.36c5.356,5.3,7.106,14.96,7.48,23.338l-.868.673a43.279,43.279,0,0,1-10.472-19.448c-.194-.778-.374-1.5-.509-2.349Z" transform="translate(-253.366 -100.86)" opacity="0.2"/>
      <path id="Path_350" data-name="Path 350" d="M290.107,180.4c-2.154,11.37-3.5,34.722,2.738,80.949h56.339c.389-8.632-5.042-50.789,3.291-91.5a148.109,148.109,0,0,0-18.85-2.379,209.034,209.034,0,0,0-23.936,0c-2.633.239-5.236.628-7.48,1.032A14.96,14.96,0,0,0,290.107,180.4Z" transform="translate(-270.376 -107.918)" fill="#407bff"/>
      <path id="Path_351" data-name="Path 351" d="M290.107,180.4c-2.154,11.37-3.5,34.722,2.738,80.949h56.339c.389-8.632-5.042-50.789,3.291-91.5a148.109,148.109,0,0,0-18.85-2.379,209.034,209.034,0,0,0-23.936,0c-2.633.239-5.236.628-7.48,1.032A14.96,14.96,0,0,0,290.107,180.4Z" transform="translate(-270.376 -107.918)" opacity="0.4"/>
      <path id="Path_352" data-name="Path 352" d="M298.72,188.078l-10.173-2.438c-.314,6.164-.344,13.793.1,23.233C293.335,203.547,299.319,195.229,298.72,188.078Z" transform="translate(-270.372 -98.737)" opacity="0.2"/>
      <path id="Path_353" data-name="Path 353" d="M301.99,337.82l.539,12.551H313.06l-.539-12.551Z" transform="translate(-263.589 58.949)" opacity="0.2"/>
      <path id="Path_354" data-name="Path 354" d="M357.862,335.68l-10.293,2.229,5.326,11.7,10.293-2.229Z" transform="translate(-240.981 57.888)" opacity="0.2"/>
      <path id="Path_355" data-name="Path 355" d="M330.317,150.144c-2.693,10.083-3.77,16.127-9.993,20.316-9.35,6.373-21.019-.928-21.318-11.579-.329-9.619,4.144-24.5,14.96-26.539a14.242,14.242,0,0,1,16.351,17.8Z" transform="translate(-265.077 -125.295)" fill="#ff8b7b"/>
      <path id="Path_356" data-name="Path 356" d="M304.669,149.63c-.509-1.346-2.827-11.774-.643-14.481s27.093-.748,30.773,2.872c6.119,5.984,1.87,11.37-4.817,18.3-5.027,5.206-5.221,11.07-7.764,11.968-4.488,1.5-11.34.09-12.716-4.653S304.669,149.63,304.669,149.63Z" transform="translate(-263.036 -124.408)" fill="#263238"/>
      <path id="Path_357" data-name="Path 357" d="M333.616,129.3c-8.8-3.74-25.3.4-34.213-1.75a13.733,13.733,0,0,0,11.384,14,117.662,117.662,0,0,0,22.44,2.079C343.011,143.183,341.1,132.487,333.616,129.3Z" transform="translate(-264.876 -127.55)" fill="#263238"/>
      <path id="Path_358" data-name="Path 358" d="M323.19,137.45a16.77,16.77,0,0,0,9.32-1.78C334.156,139.649,325.1,140.741,323.19,137.45Z" transform="translate(-253.074 -123.522)" fill="#263238"/>
      <path id="Path_359" data-name="Path 359" d="M310.061,146.139a11.833,11.833,0,0,1-2.992,6.986c-2.3,2.528-4.7.942-5.1-2.124-.359-2.783.389-7.48,3.2-8.826S310.256,143.012,310.061,146.139Z" transform="translate(-263.641 -120.497)" fill="#ff8b7b"/>
      <path id="Path_360" data-name="Path 360" d="M304.69,230.15s11.968,80.41,18.505,110.539c7.166,32.987,45.673,142.12,45.673,142.12l18.835-4.084s-26.928-88.952-32.912-135.074c-4.638-35.425-13.748-113.531-13.748-113.531Z" transform="translate(-262.25 -76.675)" fill="#407bff"/>
      <path id="Path_361" data-name="Path 361" d="M344.57,396.214c-.075,0,3.516,6.822,3.516,6.822l21.183-4.593-1.78-6.373Z" transform="translate(-242.469 3.652)" fill="#263238"/>
      <path id="Path_362" data-name="Path 362" d="M310.772,249.327c13.808,2.708,12.342,54.2,10.681,80.694-3.979-18.73-9.814-54.754-13.793-80.32A4.712,4.712,0,0,1,310.772,249.327Z" transform="translate(-260.776 -67.204)" opacity="0.3"/>
      <path id="Path_363" data-name="Path 363" d="M291.593,230.16s-1.5,78.675-.3,110.7c1.2,33.376,12.851,142.659,12.851,142.659h17.832s.643-107.338,1.5-140.115c.868-35.724,5.176-113.307,5.176-113.307Z" transform="translate(-269.124 -76.685)" fill="#407bff"/>
      <path id="Path_364" data-name="Path 364" d="M297.442,394.8c-.09,0,1,7.39,1,7.39h21.677l.6-6.6Z" transform="translate(-265.847 5.006)" fill="#263238"/>
      <path id="Path_365" data-name="Path 365" d="M316.66,183.4c5.042,13.6-24.594,29.621-24.594,29.621L279.23,196.569s8.632-17.084,19.1-24.774C311.274,162.311,312.815,173.052,316.66,183.4Z" transform="translate(-274.878 -107.422)" fill="#407bff"/>
      <path id="Path_366" data-name="Path 366" d="M316.66,183.4c5.042,13.6-24.594,29.621-24.594,29.621L279.23,196.569s8.632-17.084,19.1-24.774C311.274,162.311,312.815,173.052,316.66,183.4Z" transform="translate(-274.878 -107.422)" opacity="0.4"/>
    </g>
    <g id="Thinking" transform="translate(491.825 12.512)">
      <ellipse id="Ellipse_64" data-name="Ellipse 64" cx="53.991" cy="34.408" rx="53.991" ry="34.408" transform="translate(25.462)" fill="#407bff"/>
      <path id="Path_367" data-name="Path 367" d="M373.837,107.956A15.124,15.124,0,0,1,358.982,95.4a15.289,15.289,0,0,1,11.534-17.234h0A15.05,15.05,0,0,1,386.7,84.933l34.662-7.151a5.415,5.415,0,0,1,6.343,3.725,5.221,5.221,0,0,1-3.994,6.448l-.9.18a.883.883,0,0,0-.628.464.943.943,0,0,0,0,.778l.613,1.586a2.378,2.378,0,0,1-.928,2.887,2.842,2.842,0,0,0-1.331,2.109,2.349,2.349,0,0,1-1.81,2.079l-.7.15a2.334,2.334,0,0,1-2.483-1.2,2.917,2.917,0,0,0-5.4,1.122,2.319,2.319,0,0,1-1.8,2.064l-.7.15a2.349,2.349,0,0,1-2.483-1.2,2.992,2.992,0,0,0-2.079-1.406,2.379,2.379,0,0,1-2.094-2.349V93.669a.927.927,0,0,0-1.107-.868l-11.056,2.274a15.065,15.065,0,0,1-11.893,12.566,15.5,15.5,0,0,1-3.1.314Zm-2.992-28.424A13.778,13.778,0,0,0,360.373,95.12a13.629,13.629,0,0,0,26.928-.778V93.8l12.192-2.468a2.424,2.424,0,0,1,2.992,2.274v1.705a.883.883,0,0,0,.718.853,4.353,4.353,0,0,1,3.157,2.139.868.868,0,0,0,.883.479l.688-.15a.838.838,0,0,0,.628-.778,4.413,4.413,0,0,1,8.228-1.735.853.853,0,0,0,.868.479l.718-.15a.838.838,0,0,0,.613-.778,4.339,4.339,0,0,1,2.049-3.216.913.913,0,0,0,.314-1.077l-.613-1.586a2.409,2.409,0,0,1,1.765-3.231l.913-.194a3.755,3.755,0,0,0,2.857-4.593,3.9,3.9,0,0,0-4.608-2.648l-35.635,7.405-.269-.464a13.464,13.464,0,0,0-14.84-6.508Zm2.992,22.859a9.2,9.2,0,1,1,1.945-.12h0a9.53,9.53,0,0,1-1.93.15Zm0-17.668a8.977,8.977,0,0,0-1.661.165,8.114,8.114,0,0,0,3.381,15.873h0a8.093,8.093,0,0,0,2.812-14.676,7.959,7.959,0,0,0-4.473-1.331Z" transform="translate(-313.862 -56.224)" fill="#fff"/>
      <ellipse id="Ellipse_65" data-name="Ellipse 65" cx="17.743" cy="11.31" rx="17.743" ry="11.31" transform="translate(17.772 66.378)" fill="#407bff" opacity="0.6"/>
      <ellipse id="Ellipse_66" data-name="Ellipse 66" cx="7.286" cy="4.638" rx="7.286" ry="4.638" transform="translate(0 84.344)" fill="#407bff" opacity="0.3"/>
    </g>
  </g>
</svg>
