<svg xmlns="http://www.w3.org/2000/svg" width="135.669" height="130.661" viewBox="0 0 135.669 130.661">
  <path id="Path_266" data-name="Path 266" d="M80.259,19.905H127.43a8.352,8.352,0,0,1,5.812,2.318,7.7,7.7,0,0,1,2.427,5.551v95.019a7.622,7.622,0,0,1-2.427,5.551,8.433,8.433,0,0,1-5.812,2.318H27.254a8.352,8.352,0,0,1-5.812-2.318,7.7,7.7,0,0,1-2.427-5.551V75.985A47.436,47.436,0,0,0,27.61,78.42V99.984h.033S51.5,80.4,65.775,69.329l.167.16c.033.032.033.064.067.064l29.859,33.739,4.565-26.838a3.3,3.3,0,0,1,3.808-2.605,3.458,3.458,0,0,1,1.8.861L127,95.731V29.677a1.334,1.334,0,0,0-.49-1.053,1.665,1.665,0,0,0-1.1-.468H82.441a42.835,42.835,0,0,0-2.182-8.251ZM36.506,0C56.668,0,73.011,15.61,73.011,34.866S56.668,69.733,36.506,69.733,0,54.123,0,34.866,16.344,0,36.506,0ZM17.112,35.483H29.4V52.241H43.264V35.483H55.911l-19.394-18-19.405,18Zm87.841,2.435a12.212,12.212,0,0,1,8.439,3.339,11.052,11.052,0,0,1,0,16.131,12.348,12.348,0,0,1-16.889,0,11.081,11.081,0,0,1-3.5-8.06,11.2,11.2,0,0,1,3.5-8.071,12.2,12.2,0,0,1,8.45-3.339Z" fill="#1f64fd" fill-rule="evenodd"/>
</svg>
