<svg xmlns="http://www.w3.org/2000/svg" width="48" height="48" viewBox="0 0 48 48"><path fill="#FFE082" d="M24 4A20 20 0 1 0 24 44A20 20 0 1 0 24 4Z"/><path fill="#FFD54F" d="M24,4c-6.543,0-12.335,3.157-15.984,8.016C11.358,9.506,15.498,8,20,8c11.045,0,20,8.955,20,20c0,4.502-1.506,8.642-4.016,11.984C40.843,36.335,44,30.543,44,24C44,12.955,35.045,4,24,4z"/><path fill="#FFCA28" d="M13.5 24A2.5 2.5 0 1 0 13.5 29 2.5 2.5 0 1 0 13.5 24zM36.5 29A2.5 2.5 0 1 0 36.5 34 2.5 2.5 0 1 0 36.5 29zM21 11A4 4 0 1 0 21 19 4 4 0 1 0 21 11zM22.5 29A3.5 3.5 0 1 0 22.5 36 3.5 3.5 0 1 0 22.5 29z"/><g><path fill="#E5B223" d="M22.5 18.5c-1.933 0-3.5-1.567-3.5-3.5s1.567-3.5 3.5-3.5c.168 0 .328.026.49.049C22.401 11.209 21.729 11 21 11c-2.209 0-4 1.791-4 4s1.791 4 4 4c.729 0 1.401-.209 1.99-.549C22.828 18.474 22.668 18.5 22.5 18.5zM36 31.5c0-1.024.618-1.903 1.5-2.289C37.193 29.077 36.856 29 36.5 29c-1.381 0-2.5 1.119-2.5 2.5s1.119 2.5 2.5 2.5c.356 0 .693-.077 1-.211C36.618 33.402 36 32.524 36 31.5zM13 26.5c0-1.024.618-1.903 1.5-2.289C14.193 24.077 13.856 24 13.5 24c-1.381 0-2.5 1.119-2.5 2.5s1.119 2.5 2.5 2.5c.356 0 .693-.077 1-.211C13.618 28.402 13 27.524 13 26.5zM21 32.5c0-1.583 1.058-2.904 2.5-3.338C23.182 29.066 22.85 29 22.5 29c-1.933 0-3.5 1.567-3.5 3.5s1.567 3.5 3.5 3.5c.35 0 .682-.066 1-.162C22.058 35.404 21 34.083 21 32.5z"/></g></svg>