<svg xmlns="http://www.w3.org/2000/svg" width="48" height="48" viewBox="0 0 48 48"><path fill="#3F51B5" d="M34,13c0,0.553-0.447,1-1,1H5c-0.553,0-1-0.447-1-1V6c0-0.553,0.447-1,1-1h28c0.553,0,1,0.447,1,1V13z"/><path fill="#BBDEFB" d="M37.054,31.5c0-2.321-1.222-4.354-3.054-5.504V10H4v29h30v-1.996C35.832,35.854,37.054,33.821,37.054,31.5z"/><path fill="#616161" d="M38.053 35.418H40.053V44.579H38.053z" transform="rotate(-45.02 39.05 39.996)"/><path fill="#616161" d="M30.554,23c-4.693,0-8.5,3.807-8.5,8.5s3.807,8.5,8.5,8.5s8.5-3.807,8.5-8.5S35.247,23,30.554,23z M30.554,38c-3.589,0-6.5-2.911-6.5-6.5s2.911-6.5,6.5-6.5s6.5,2.911,6.5,6.5S34.143,38,30.554,38z"/><path fill="#37474F" d="M39.222 38.239H41.222V44.095H39.222z" transform="rotate(-45.02 40.22 41.165)"/><g><path fill="#1976D2" d="M21.024 27H13v2h7.313C20.482 28.303 20.722 27.635 21.024 27zM13 15H29V17H13zM24.354 23H13v2h9.264C22.864 24.24 23.568 23.568 24.354 23zM13 19H29V21H13zM9 31H11V33H9zM20 31.5c0-.169.018-.333.025-.5H13v2h7 .119C20.049 32.509 20 32.011 20 31.5zM9 27H11V29H9zM9 15H11V17H9zM9 23H11V25H9zM9 19H11V21H9z"/></g></svg>