<svg xmlns="http://www.w3.org/2000/svg" xmlns:xlink="http://www.w3.org/1999/xlink" width="80" height="80" viewBox="0 0 80 80">
  <defs>
    <linearGradient id="linear-gradient" x1="0.5" y1="1" x2="0.5" gradientUnits="objectBoundingBox">
      <stop offset="0" stop-color="#addcff"/>
      <stop offset="0.503" stop-color="#eaf6ff"/>
      <stop offset="1" stop-color="#eaf6ff"/>
    </linearGradient>
  </defs>
  <g id="assignment" transform="translate(-489 -508)">
    <circle id="Ellipse_45" data-name="Ellipse 45" cx="40" cy="40" r="40" transform="translate(489 508)" fill="url(#linear-gradient)"/>
    <g id="_84" data-name="84" transform="translate(504 512.9)">
      <path id="Path_296" data-name="Path 296" d="M1,13.1v7.29H43.21V13.1Zm27.587,4.758H6.544a1.091,1.091,0,0,1,0-2.183H28.587a1.091,1.091,0,0,1,0,2.183Zm4.54,0h-1.4a1.091,1.091,0,0,1,0-2.183h1.4a1.081,1.081,0,0,1,1.091,1.091A1.109,1.109,0,0,1,33.127,17.858Zm4.54,0h-1.4a1.091,1.091,0,0,1,0-2.183h1.4a1.091,1.091,0,1,1,0,2.183Z" fill="#1526cc"/>
      <path id="Path_297" data-name="Path 297" d="M37.012,65.412,26.4,68.86l3.929-10.214L43.254,45.725V34.9H1V69.821H43.21V59.17ZM14.706,41.666h21a1.091,1.091,0,1,1,0,2.183h-21a1.081,1.081,0,0,1-1.091-1.091A1.109,1.109,0,0,1,14.706,41.666ZM10.865,56.245H5.54V50.876h5.369v5.369Zm0-10.825H5.54V40.051h5.369V45.42Zm2.75,8.119a1.081,1.081,0,0,1,1.091-1.091h18.2a1.091,1.091,0,1,1,0,2.183h-18.2A1.109,1.109,0,0,1,13.615,53.539Z" transform="translate(0 -12.284)" fill="#1526cc"/>
      <g id="Group_130" data-name="Group 130" transform="translate(23.329 27.287)">
        <path id="Path_298" data-name="Path 298" d="M118.31,50.925l1.44-1.44a.794.794,0,0,0,0-1.179l-2.444-2.444a.794.794,0,0,0-1.179,0L114.6,47.39Z" transform="translate(-93.342 -45.6)" fill="#1526cc"/>
        <path id="Path_299" data-name="Path 299" d="M67.515,96.3,65.9,100.621l4.583-1.528Z" transform="translate(-65.9 -74.169)" fill="#1526cc"/>
        <path id="Path_300" data-name="Path 300" d="M89.193,53.2,72.3,70.093l3.754,3.579L92.947,56.736Z" transform="translate(-69.506 -49.883)" fill="#1526cc"/>
      </g>
    </g>
  </g>
</svg>
