<svg xmlns="http://www.w3.org/2000/svg" xmlns:xlink="http://www.w3.org/1999/xlink" width="80" height="80" viewBox="0 0 80 80">
  <defs>
    <linearGradient id="linear-gradient" x1="0.5" y1="1" x2="0.5" gradientUnits="objectBoundingBox">
      <stop offset="0" stop-color="#addcff"/>
      <stop offset="0.503" stop-color="#eaf6ff"/>
      <stop offset="1" stop-color="#eaf6ff"/>
    </linearGradient>
  </defs>
  <g id="control" transform="translate(-489 -508)">
    <circle id="Ellipse_45" data-name="Ellipse 45" cx="40" cy="40" r="40" transform="translate(489 508)" fill="url(#linear-gradient)"/>
    <g id="monitoring" transform="translate(504 523)">
      <path id="Path_317" data-name="Path 317" d="M11.194,8.734l.99,2.971h3.655V10.157H13.3L11.194,3.838l-2.467,7.4L7.8,9.383H5v1.548H6.844l2.171,4.34Z" transform="translate(-0.903 -0.641)" fill="#1526cc" stroke="#1526cc" stroke-width="0.5"/>
      <path id="Path_318" data-name="Path 318" d="M45.129,37.387A3.875,3.875,0,0,0,49,33.516V13.387a3.875,3.875,0,0,0-3.132-3.8A8.51,8.51,0,0,0,28.91,9.516H18.032a8.516,8.516,0,1,0-13.654,6.79,5.4,5.4,0,0,0-1.83,4.049v4.394a7.554,7.554,0,0,0,4.645,6.979V33.9a9.07,9.07,0,0,0-4.645,7.908V49H20.243v-.018a6.365,6.365,0,0,0,2.318-.557l6.3-2.863a2.638,2.638,0,0,0,.663-.433h3.219a2.319,2.319,0,0,0,2.18-1.548H46.677a2.323,2.323,0,1,0,0-4.645H42.032a.774.774,0,0,1-.774-.774v-.774Zm0-1.548H18.41a9.122,9.122,0,0,0-5.023-2.915V31.786a3.234,3.234,0,0,0,1.056-.592H47.452v2.323A2.325,2.325,0,0,1,45.129,35.839Zm-13.935,3.1H29.828a5.265,5.265,0,0,0-4.054,1.917V37.387h6.194v1.627A3.867,3.867,0,0,0,31.194,38.935ZM20.985,43.289l-.395-2.762a8.969,8.969,0,0,0-1.071-3.139h4.706v4.428ZM10.769,21.128l.561-1.12a.77.77,0,0,1,.693-.428h4.462a.774.774,0,0,1,0,1.548ZM37.387,3.323a6.968,6.968,0,1,1-6.968,6.968A6.976,6.976,0,0,1,37.387,3.323ZM28.91,11.065a8.513,8.513,0,0,0,16.944.128,2.317,2.317,0,0,1,1.6,2.195V29.645H15.459a3.209,3.209,0,0,0,.13-1.24l-.573-5.728h1.468a2.323,2.323,0,0,0,0-4.645H14.857a3.844,3.844,0,0,0-.631-1.433,8.452,8.452,0,0,0,3.648-5.534ZM2.548,9.516A6.968,6.968,0,1,1,13.06,15.5a3.835,3.835,0,0,0-2-.562h-3.1a5.385,5.385,0,0,0-2.17.457A6.971,6.971,0,0,1,2.548,9.516ZM4.1,20.355a3.875,3.875,0,0,1,3.871-3.871h3.1a2.324,2.324,0,0,1,2.189,1.548H12.021a2.311,2.311,0,0,0-2.078,1.284l-.907,1.813H4.1Zm0,4.394V22.677H6.219a3.548,3.548,0,0,0-.574,1.936,3.6,3.6,0,0,0,1.048,2.53l.5.5V30a6,6,0,0,1-3.1-5.251Zm3.691,1.3a2.044,2.044,0,0,1-.595-1.435,2.016,2.016,0,0,1,.595-1.435l.5-.5h5.172l.588,5.884a1.684,1.684,0,0,1-.487,1.364,1.7,1.7,0,0,1-1.2.5H10.29v1.548h1.548v.784c-.075,0-.149-.011-.224-.011a9.007,9.007,0,0,0-2.873.475V27ZM21.92,47.016a4.866,4.866,0,0,1-6.674-3.033L14.13,40.262l-1.483.444,1.116,3.722a6.383,6.383,0,0,0,1.981,3.024H4.1V41.809a7.518,7.518,0,0,1,14.96-1.063l.459,3.211-1.03.468.641,1.409,4.584-2.084.907,2.039Zm6.3-2.864-2.192,1-.907-2.04,2.151-.978a1.16,1.16,0,0,1,.489-.1,1.109,1.109,0,0,1,.459,2.12Zm4.522-.571H30.379a2.576,2.576,0,0,0,.04-.438A2.648,2.648,0,0,0,28.7,40.67a3.643,3.643,0,0,1,1.124-.186h1.366a2.325,2.325,0,0,1,2.323,2.323.774.774,0,0,1-.774.774Zm9.29-3.1h4.645a.774.774,0,1,1,0,1.548H34.986a3.862,3.862,0,0,0-1.47-2.3V37.387H39.71v.774a2.325,2.325,0,0,0,2.323,2.323Z" fill="#1526cc" stroke="#1526cc" stroke-width="0.5"/>
      <path id="Path_319" data-name="Path 319" d="M57,42h1.548v1.548H57Z" transform="translate(-12.645 -9.258)" fill="#1526cc" stroke="#1526cc" stroke-width="0.5"/>
      <path id="Path_320" data-name="Path 320" d="M49,42h1.548v1.548H49Z" transform="translate(-10.839 -9.258)" fill="#1526cc" stroke="#1526cc" stroke-width="0.5"/>
      <path id="Path_321" data-name="Path 321" d="M53,42h1.548v1.548H53Z" transform="translate(-11.742 -9.258)" fill="#1526cc" stroke="#1526cc" stroke-width="0.5"/>
      <path id="Path_322" data-name="Path 322" d="M42,8h1.548V9.548H42Z" transform="translate(-9.258 -1.581)" fill="#1526cc" stroke="#1526cc" stroke-width="0.5"/>
      <path id="Path_323" data-name="Path 323" d="M46,8h6.194V9.548H46Z" transform="translate(-10.161 -1.581)" fill="#1526cc" stroke="#1526cc" stroke-width="0.5"/>
      <path id="Path_324" data-name="Path 324" d="M42,12h1.548v1.548H42Z" transform="translate(-9.258 -2.484)" fill="#1526cc" stroke="#1526cc" stroke-width="0.5"/>
      <path id="Path_325" data-name="Path 325" d="M46,12h6.194v1.548H46Z" transform="translate(-10.161 -2.484)" fill="#1526cc" stroke="#1526cc" stroke-width="0.5"/>
      <path id="Path_326" data-name="Path 326" d="M42,16h1.548v1.548H42Z" transform="translate(-9.258 -3.387)" fill="#1526cc" stroke="#1526cc" stroke-width="0.5"/>
      <path id="Path_327" data-name="Path 327" d="M46,16h6.194v1.548H46Z" transform="translate(-10.161 -3.387)" fill="#1526cc" stroke="#1526cc" stroke-width="0.5"/>
      <path id="Path_328" data-name="Path 328" d="M33.742,28H26v6.194h7.742Zm-1.548,4.645H27.548v-3.1h4.645Z" transform="translate(-5.645 -6.097)" fill="#1526cc" stroke="#1526cc" stroke-width="0.5"/>
      <path id="Path_329" data-name="Path 329" d="M26,24h7.742v1.548H26Z" transform="translate(-5.645 -5.194)" fill="#1526cc" stroke="#1526cc" stroke-width="0.5"/>
      <path id="Path_330" data-name="Path 330" d="M26,20h7.742v1.548H26Z" transform="translate(-5.645 -4.29)" fill="#1526cc" stroke="#1526cc" stroke-width="0.5"/>
      <path id="Path_331" data-name="Path 331" d="M26,16h7.742v1.548H26Z" transform="translate(-5.645 -3.387)" fill="#1526cc" stroke="#1526cc" stroke-width="0.5"/>
      <path id="Path_332" data-name="Path 332" d="M38,34h1.548v1.548H38Z" transform="translate(-8.355 -7.452)" fill="#1526cc" stroke="#1526cc" stroke-width="0.5"/>
      <path id="Path_333" data-name="Path 333" d="M42,34H55.161v1.548H42Z" transform="translate(-9.258 -7.452)" fill="#1526cc" stroke="#1526cc" stroke-width="0.5"/>
      <path id="Path_334" data-name="Path 334" d="M38,30H54.258v1.548H38Z" transform="translate(-8.355 -6.548)" fill="#1526cc" stroke="#1526cc" stroke-width="0.5"/>
      <path id="Path_335" data-name="Path 335" d="M38,26H54.258v1.548H38Z" transform="translate(-8.355 -5.645)" fill="#1526cc" stroke="#1526cc" stroke-width="0.5"/>
    </g>
  </g>
</svg>
