<svg xmlns="http://www.w3.org/2000/svg" xmlns:xlink="http://www.w3.org/1999/xlink" width="80" height="80" viewBox="0 0 80 80">
  <defs>
    <linearGradient id="linear-gradient" x1="0.5" y1="1" x2="0.5" gradientUnits="objectBoundingBox">
      <stop offset="0" stop-color="#addcff"/>
      <stop offset="0.503" stop-color="#eaf6ff"/>
      <stop offset="1" stop-color="#eaf6ff"/>
    </linearGradient>
  </defs>
  <g id="managment" transform="translate(-489 -508)">
    <circle id="Ellipse_45" data-name="Ellipse 45" cx="40" cy="40" r="40" transform="translate(489 508)" fill="url(#linear-gradient)"/>
    <g id="data" transform="translate(502.398 528)">
      <path id="Path_301" data-name="Path 301" d="M89.412,32H48V59.608H89.412ZM87.687,57.883H49.726V33.726H87.687Zm0,0" transform="translate(-41.905 -28.549)" fill="#1526cc"/>
      <path id="Path_302" data-name="Path 302" d="M50.958,34.51V4.314A4.319,4.319,0,0,0,46.644,0H6.957A4.319,4.319,0,0,0,2.644,4.314v30.2C.921,41.205,52.681,41.205,50.958,34.51ZM4.369,4.314A2.588,2.588,0,0,1,6.957,1.726H46.644a2.588,2.588,0,0,1,2.588,2.588v30.2H4.369Z" fill="#1526cc"/>
      <path id="Path_303" data-name="Path 303" d="M88,70.037v3.951l2.933,1.675a6.9,6.9,0,0,0,10.439,7.84,6.869,6.869,0,0,0,8.11-.259l1.455,1.459h3.808V82.978h-3.094l-.949-.949a6.879,6.879,0,0,0-2.06-10.233,6.933,6.933,0,0,0,.063-.9A6.857,6.857,0,0,0,107.49,67l1.528-1.273h5.727V64h-6.351l-2.055,1.712A6.891,6.891,0,0,0,94.9,70.9c0,.173.014.334.025.5a6.935,6.935,0,0,0-3.253,2.7l-1.949-1.113V70.037Zm12.09,7.541a6.516,6.516,0,0,0,2.577.165V77.8a5.149,5.149,0,0,1-1.294,3.413,5.149,5.149,0,0,1-1.294-3.413C100.079,77.726,100.086,77.652,100.09,77.577Zm1.283-3.192a5.168,5.168,0,0,1,.981,1.657,5.218,5.218,0,0,1-.55.034,5.135,5.135,0,0,1-1.355-.186,5.2,5.2,0,0,1,.924-1.5Zm-2.494.776a5.194,5.194,0,0,1-1.938-2.511,5.328,5.328,0,0,1,.55-.026,5.14,5.14,0,0,1,2.545.674,6.923,6.923,0,0,0-1.157,1.867Zm3.831-1.867a5.1,5.1,0,0,1,3.9-.487,5.2,5.2,0,0,1-2.594,2.761A6.9,6.9,0,0,0,102.71,73.3Zm7.722,4.507a5.143,5.143,0,0,1-.962,2.995l-1.879-1.879-1.22,1.22,1.879,1.879a5.143,5.143,0,0,1-5.54.289,6.867,6.867,0,0,0,1.683-4.5c0-.173-.014-.334-.025-.5a6.936,6.936,0,0,0,3.813-3.767,5.17,5.17,0,0,1,2.251,4.266Zm-13.8-6.9A5.169,5.169,0,0,1,105,66.831l-2.019,1.68,1.1,1.325,2.075-1.726a5.143,5.143,0,0,1,.824,2.788c0,.076-.008.149-.011.224a6.816,6.816,0,0,0-5.6.976,6.765,6.765,0,0,0-4.745-1.141V70.9Zm-1.349,2.229a6.932,6.932,0,0,0,3.14,3.779,6.759,6.759,0,0,0,1.618,5.4,5.162,5.162,0,0,1-7.561-5.759l2,1.142.856-1.5L93.17,74.956a5.212,5.212,0,0,1,2.108-1.828Zm0,0" transform="translate(-77.591 -57.095)" fill="#1526cc"/>
      <path id="Path_304" data-name="Path 304" d="M352,64h5.177v1.726H352Zm0,0" transform="translate(-313.121 -57.098)" fill="#1526cc"/>
      <path id="Path_305" data-name="Path 305" d="M352,88h5.177v1.726H352Zm0,0" transform="translate(-313.121 -78.51)" fill="#1526cc"/>
      <path id="Path_306" data-name="Path 306" d="M352,112h5.177v1.726H352Zm0,0" transform="translate(-313.121 -99.921)" fill="#1526cc"/>
      <path id="Path_307" data-name="Path 307" d="M352,240h5.177v1.726H352Zm0,0" transform="translate(-313.121 -214.117)" fill="#1526cc"/>
      <path id="Path_308" data-name="Path 308" d="M384,216h1.726v1.726H384Zm0,0" transform="translate(-341.669 -192.706)" fill="#1526cc"/>
      <path id="Path_309" data-name="Path 309" d="M352,216h1.726v1.726H352Zm0,0" transform="translate(-313.121 -192.706)" fill="#1526cc"/>
      <path id="Path_310" data-name="Path 310" d="M104,88h3.451v1.726H104Zm0,0" transform="translate(-91.866 -78.51)" fill="#1526cc"/>
      <path id="Path_311" data-name="Path 311" d="M80,88h1.726v1.726H80Zm0,0" transform="translate(-70.454 -78.51)" fill="#1526cc"/>
      <path id="Path_312" data-name="Path 312" d="M104,64h3.451v1.726H104Zm0,0" transform="translate(-91.866 -57.098)" fill="#1526cc"/>
      <path id="Path_313" data-name="Path 313" d="M80,64h1.726v1.726H80Zm0,0" transform="translate(-70.454 -57.098)" fill="#1526cc"/>
    </g>
    <g id="hand-svgrepo-com" transform="translate(462.945 507.215)">
      <path id="Path_207" data-name="Path 207" d="M83.45,39.621a1.611,1.611,0,0,0-1.364.744v-.509a1.585,1.585,0,0,0-1.6-1.565,1.611,1.611,0,0,0-1.364.744v-.352a1.585,1.585,0,0,0-1.6-1.565,1.611,1.611,0,0,0-1.364.744V33.126a1.6,1.6,0,0,0-3.209,0V44.9l-1.8-2.25a1.632,1.632,0,0,0-2.252-.272,1.539,1.539,0,0,0-.278,2.2l5.044,6.309a4.256,4.256,0,0,0,3.513,1.832h3.141a4.7,4.7,0,0,0,4.746-4.629v-6.9A1.585,1.585,0,0,0,83.45,39.621Z" transform="translate(0)" fill="#1526cc"/>
      <path id="Path_208" data-name="Path 208" d="M128.514,251.755h-9.851a1.009,1.009,0,0,0-1.009,1.009v2.7a1.009,1.009,0,0,0,1.009,1.009h9.851a1.009,1.009,0,0,0,1.009-1.009v-2.7A1.009,1.009,0,0,0,128.514,251.755Z" transform="translate(-44.468 -198.684)" fill="#1526cc"/>
    </g>
  </g>
</svg>
