<svg xmlns="http://www.w3.org/2000/svg" xmlns:xlink="http://www.w3.org/1999/xlink" width="80" height="80" viewBox="0 0 80 80">
  <defs>
    <linearGradient id="linear-gradient" x1="0.5" y1="1" x2="0.5" gradientUnits="objectBoundingBox">
      <stop offset="0" stop-color="#addcff"/>
      <stop offset="0.503" stop-color="#eaf6ff"/>
      <stop offset="1" stop-color="#eaf6ff"/>
    </linearGradient>
  </defs>
  <g id="register" transform="translate(-489 -508)">
    <circle id="Ellipse_45" data-name="Ellipse 45" cx="40" cy="40" r="40" transform="translate(489 508)" fill="url(#linear-gradient)"/>
    <g id="verify" transform="translate(505 524)">
      <path id="Path_314" data-name="Path 314" d="M20.156,3.917H18a5.4,5.4,0,0,0-10.379,0H5.469A1.479,1.479,0,0,0,4,5.385V8.323A3.444,3.444,0,0,0,7.427,11.75H18.2a3.444,3.444,0,0,0,3.427-3.427V5.385A1.479,1.479,0,0,0,20.156,3.917Z" transform="translate(4.367)" fill="#1526cc"/>
      <path id="Path_315" data-name="Path 315" d="M27.906,3h-.49V5.587a5.541,5.541,0,0,1-5.385,5.691H11.26A5.541,5.541,0,0,1,5.875,5.587V3h-.49A5.541,5.541,0,0,0,0,8.691V34.559A5.541,5.541,0,0,0,5.385,40.25H18.291a18.928,18.928,0,0,1-1.625-7.243H7.344a1.554,1.554,0,0,1,0-3.1h9.478a19.823,19.823,0,0,1,.862-3.622H7.344a1.554,1.554,0,0,1,0-3.1h11.75a17.888,17.888,0,0,1,2.722-3.622H7.344a1.554,1.554,0,0,1,0-3.1H25.83A16.178,16.178,0,0,1,33.292,14.4V8.691A5.541,5.541,0,0,0,27.906,3Z" transform="translate(0 2.875)" fill="#1526cc"/>
      <path id="Path_316" data-name="Path 316" d="M23.719,10.5A13.219,13.219,0,1,0,36.938,23.719,13.234,13.234,0,0,0,23.719,10.5Zm6.369,10.593-6.854,7.833a1.956,1.956,0,0,1-1.408.668H21.76a1.957,1.957,0,0,1-1.385-.574L16.459,25.1a1.958,1.958,0,0,1,2.769-2.769l2.436,2.436,5.476-6.259a1.959,1.959,0,1,1,2.947,2.581Z" transform="translate(12.063 12.063)" fill="#1526cc"/>
    </g>
  </g>
</svg>
