<svg height="512" viewBox="0 0 512 512" width="512" xmlns="http://www.w3.org/2000/svg"><g id="Filled_outline" data-name="Filled outline"><rect fill="#426887" height="464" rx="32" transform="matrix(0 -1 1 0 32 480)" width="336" x="88" y="-8"/><path d="m88 32h336v384h-336z" fill="#4db6e4" transform="matrix(0 -1 1 0 32 480)"/><path d="m272 136a104 104 0 1 0 104 104h-104z" fill="#4aafdb"/><path d="m304 104v104h104a104 104 0 0 0 -104-104z" fill="#4aafdb"/><path d="m256 120a104 104 0 1 0 104 104h-104z" fill="#e25740"/><path d="m288 88v104h104a104 104 0 0 0 -104-104z" fill="#ffb431"/><path d="m468 328a20 20 0 0 0 -20 20 20 20 0 0 0 -40 0 20 20 0 0 0 -40 0v-64a20 20 0 0 0 -40 0v116l-33.532-33.532a22.083 22.083 0 0 0 -15.615-6.468h-.77a22.083 22.083 0 0 0 -22.083 22.083 22.08 22.08 0 0 0 7.412 16.5l64.588 57.417h160v-108a20 20 0 0 0 -20-20z" fill="#fdc8a2"/><path d="m496 88v216h-16v-216a24.028 24.028 0 0 0 -24-24v240h-16v-240h-368v320h160v16h-176a40.045 40.045 0 0 1 -40-40v-240h16v240a24.028 24.028 0 0 0 24 24v-320a24.028 24.028 0 0 0 -24 24v16h-16v-16a40.045 40.045 0 0 1 40-40h400a40.045 40.045 0 0 1 40 40zm-240 248a112.27 112.27 0 0 0 51.7-12.624l-7.4-14.188a94.9 94.9 0 0 1 -44.3 10.812 96.021 96.021 0 0 1 -80.915-147.687l-13.474-8.626a112.019 112.019 0 0 0 94.389 172.313zm0-224a111.054 111.054 0 0 0 -80.82 34.461l11.544 11.078a95.086 95.086 0 0 1 61.276-29.215v95.676a8 8 0 0 0 8 8h95.671c-.187 2.276-.454 4.541-.8 6.78l15.813 2.44a113.26 113.26 0 0 0 1.316-17.22 8 8 0 0 0 -8-8h-96v-96a8 8 0 0 0 -8-8zm144 80a8 8 0 0 1 -8 8h-104a8 8 0 0 1 -8-8v-104a8 8 0 0 1 8-8 112.127 112.127 0 0 1 112 112zm-16.33-8a96.167 96.167 0 0 0 -87.67-87.67v87.67zm-295.67-104v16h16v-16zm32 0v16h16v-16zm48 0h-16v16h16zm-80 56h64v-16h-64zm0 32h48v-16h-48zm56 136h-56v16h56zm24 32h-48v16h48zm-80 16h16v-16h-16zm408-4v108a8 8 0 0 1 -8 8h-160a8 8 0 0 1 -5.315-2.021l-64.59-57.41a29.786 29.786 0 0 1 -6.87-8.951q-.314-.609-.586-1.219a30.079 30.079 0 0 1 27.441-42.399h.77a29.9 29.9 0 0 1 21.277 8.812l19.873 19.875v-96.687a28 28 0 0 1 56 0v38.689a28 28 0 0 1 31.993 5.735c.071-.073.138-.148.21-.22a27.972 27.972 0 0 1 39.79.212c.069-.071.139-.142.21-.212a28 28 0 0 1 47.797 19.796zm-16 0a12 12 0 0 0 -24 0 8 8 0 0 1 -16 0 12 12 0 0 0 -24 0v12h-16v-12a12 12 0 0 0 -24 0v12h-16v-76a12 12 0 0 0 -24 0v116a8 8 0 0 1 -13.657 5.657l-33.53-33.53a14.187 14.187 0 0 0 -9.963-4.127h-.77a14.079 14.079 0 0 0 -12.84 19.856c.071.16.146.315.227.471.018.035.036.07.054.107a14.06 14.06 0 0 0 3.209 4.181l62.312 55.385h148.958zm-64-268h-40v16h40zm0 48v-16h-24v16z"/></g></svg>